<svg width="154" height="133" viewBox="0 0 154 133" fill="none" xmlns="http://www.w3.org/2000/svg">
<g id="Optom bozor bozor bo&#39;rilari">
<path id="Path" d="M118 76.1087C118 76.1087 117.029 86.0579 116.366 89.2789C115.548 93.263 113.639 96.9809 113.639 96.9809L112.418 100L109 98.669C109 98.669 115.275 94.0593 116.64 76L118 76.1087Z" fill="black" stroke="black"/>
<path id="Path_2" d="M29.2583 115.5C29.2583 115.5 28.3503 118.781 29.9392 123.156C30.0459 123.447 31.755 123.812 31.755 123.812C31.755 123.812 76.4696 122.062 77.3775 121.625C78.2854 121.188 102.572 122.062 102.572 122.062L120.503 126L123 117.688L76.6966 112L29.2583 115.5Z" fill="black" stroke="black"/>
<g id="Group">
<path id="Path_3" d="M51 97.25L55.3182 100L68.5 99.7708C68.5 99.7708 69.6409 97.5685 69.9114 97.5685C70.1818 97.5685 71.2727 97.2935 71.2727 97.2935L70.1409 93.4435L51 97.25Z" fill="black" stroke="black"/>
<path id="Path_4" d="M115.348 78.0894C115.891 77.5417 115.891 82.4779 115.891 82.4779C115.891 82.4779 115.075 86.8664 114.803 88.2392C114.53 89.6119 112.625 94.5481 112.625 94.5481L110.993 97.8412L108.816 99.2139L95.4844 99.4889L109.632 89.7792C109.632 89.7792 112.893 85.0767 113.439 83.7796C113.989 82.4779 115.348 78.0894 115.348 78.0894Z" fill="black" stroke="black"/>
</g>
<g id="Group_2">
<path id="Path_5" d="M147.08 105.942C146.452 105.764 145.359 105.462 143.729 105.045C142.944 104.845 142.266 104.674 141.694 104.528L141.456 104.469C141.067 104.371 140.735 104.287 140.457 104.217C140.35 104.189 140.246 104.167 140.142 104.146L140.133 104.144C139.977 104.114 139.823 104.091 139.679 104.075L139.134 104.021C138.537 104.044 137.965 104.221 137.456 104.549L136.922 104.893L136.472 104.444C135.032 103.008 133.243 102.052 131.156 101.601C129.095 101.158 127.096 101.28 125.217 101.972L124.636 102.186L124.29 101.672C123.774 100.905 122.981 100.393 122.056 100.229C119.573 99.7851 118.293 99.5734 115.832 99.1956L115.801 99.191C115.726 99.1774 115.491 99.125 114.971 98.9634C114.227 98.7313 113.661 98.5924 113.191 98.5242C112.264 98.3921 111.362 98.6175 110.645 99.1615C110.554 99.2297 110.462 99.3117 110.353 99.4164L109.853 99.8943L109.313 99.4619C107.737 98.1964 105.867 97.443 103.757 97.22C101.104 96.9423 98.5939 97.5841 96.4976 99.075L95.939 99.471L95.4687 98.9748C95.2154 98.7062 94.9463 98.4673 94.6704 98.2647C93.2254 97.2086 91.319 96.6168 89.0034 96.5076C86.2061 96.3733 84.7565 96.3255 81.9547 96.2686C81.9366 96.2686 81.9162 96.2686 81.8981 96.2686C80.9257 96.2686 80.0393 96.6396 79.4016 97.3178C79.2252 97.5068 79.0646 97.7298 78.9244 97.9825L78.1917 99.3117L77.5246 97.9483C77.3279 97.55 77.0701 97.204 76.7535 96.9241C76.1407 96.3824 75.3424 96.0819 74.5012 96.0819H74.4718C74.119 96.0842 73.6645 96.1138 73.081 96.1707C72.5745 96.2208 72.3302 96.2344 72.2149 96.2367C71.9978 96.2413 71.6563 96.2344 71.195 96.2231C70.6252 96.2071 70.1932 96.2048 69.8721 96.214C69.4085 96.2276 68.2236 96.3847 67.2828 97.55L66.6994 98.2761L66.0798 97.5796C65.2906 96.6942 64.4041 96.2891 63.3661 96.3437C62.9885 96.3642 62.5181 96.4211 61.8827 96.5235C61.3535 96.61 61.1341 96.6327 61.064 96.6373C60.7678 96.6555 60.3924 96.6896 59.9017 96.742C59.4924 96.7875 59.1939 96.8148 59.0152 96.8285C58.4024 96.8717 57.871 97.0197 57.3938 97.2814C57.0184 97.4863 56.6883 97.764 56.4124 98.1031L56.0099 98.597L55.4423 98.3079C53.6241 97.3793 51.6228 97.022 49.488 97.2496C47.5885 97.4521 45.8744 98.0894 44.3954 99.1432L43.9115 99.4892L43.4456 99.1182C43.4321 99.1068 43.4185 99.0954 43.4049 99.0841C42.8893 98.6971 42.0323 98.2852 40.8134 98.4582C40.646 98.4809 40.5714 98.4923 39.2123 98.8178C37.6067 99.2024 36.5914 99.4278 36.112 99.5051C34.1921 99.8124 32.6724 100.008 31.4671 100.104L31.4377 100.106C31.3111 100.111 31.1166 100.122 30.895 100.163C30.0831 100.311 29.3595 100.748 28.862 101.392L28.5544 101.79L28.0637 101.679C26.777 101.387 25.4066 101.39 23.9887 101.686C23.5749 101.772 22.9982 101.909 22.2791 102.091C21.7432 102.227 21.1462 102.375 20.7889 102.455C20.3479 102.553 19.6288 102.696 18.9888 102.824C18.1589 102.99 17.494 103.131 17.0124 103.247C16.0739 103.47 15.3005 104.044 14.8369 104.856L14.5226 105.409L13.9165 105.22C11.9763 104.617 9.95006 104.601 7.88769 105.173C5.07227 105.953 2.83124 107.667 1.40657 110.134C-0.0339293 112.629 -0.352784 115.392 0.481665 118.121C1.29124 120.77 3.03476 122.864 5.52454 124.178C7.98266 125.475 10.6126 125.753 13.3127 125.006C15.21 124.48 16.8269 123.531 18.1136 122.184L18.5478 121.729L19.086 122.05C19.8504 122.505 20.7776 122.639 21.6663 122.427C21.9422 122.361 22.3176 122.261 22.8806 122.097C23.4505 121.933 23.706 121.872 23.7897 121.854C24.9362 121.592 25.5287 121.512 25.7775 121.49L25.8046 121.487C26.0692 121.471 26.2795 121.446 26.483 121.401C27.9077 121.091 28.9592 119.915 29.0949 118.472L29.1401 118L29.5721 117.814C30.246 117.522 30.8678 117.158 31.4219 116.73L32.3061 116.048L32.6566 117.113C33.1156 118.506 34.4114 119.443 35.8836 119.443C36.0894 119.443 36.2974 119.425 36.5032 119.391C36.7972 119.341 37.1974 119.259 37.8012 119.129C38.3779 119.004 38.6696 118.952 38.8143 118.929C38.9342 118.909 39.2349 118.865 39.8727 118.799C40.4877 118.736 40.9378 118.683 41.243 118.635C42.4416 118.456 43.4321 117.693 43.8934 116.596L44.2529 115.74L45.0376 116.23C47.0186 117.463 49.2302 117.959 51.6431 117.705C53.5834 117.497 55.3156 116.831 56.7923 115.722L57.2921 115.347L57.7715 115.747C58.4589 116.323 59.3183 116.598 60.2432 116.532C60.5326 116.512 60.9374 116.471 61.5141 116.405C62.1133 116.337 62.3847 116.316 62.4751 116.312C62.5837 116.305 62.8596 116.293 63.4521 116.289C64.0378 116.287 64.4448 116.277 64.7388 116.262C64.9808 116.25 65.2205 116.214 65.4489 116.155L65.718 116.084L65.9712 116.2C66.3964 116.394 66.869 116.48 67.4185 116.457C67.9273 116.437 68.3954 116.309 68.807 116.079L69.0535 115.941L69.3316 115.993C69.5804 116.038 69.8292 116.059 70.0666 116.05C70.3628 116.041 70.7563 116.018 71.3533 115.975C71.9232 115.934 72.2059 115.922 72.3257 115.92C72.4976 115.918 72.7735 115.92 73.2981 115.938C73.8499 115.959 74.2705 115.966 74.5803 115.966C75.754 115.954 76.8281 115.374 77.4477 114.413L78.1194 113.375L78.7797 114.42C79.3903 115.388 80.4576 115.979 81.6358 116.004C81.9931 116.011 82.4838 116.011 83.2278 116.002C83.9696 115.995 84.3811 116 84.596 116.007C85.2156 116.027 86.1043 116.075 87.1061 116.141L87.7506 116.184C88.6099 116.241 89.2793 116.284 89.7587 116.312C91.4841 116.407 93.0626 115.891 94.4262 114.791L94.9689 114.354L95.4709 114.839C97.1557 116.469 99.2316 117.422 101.64 117.675C103.589 117.88 105.419 117.588 107.097 116.81L107.662 116.546L108.049 117.038C108.612 117.752 109.435 118.208 110.435 118.349C111.05 118.435 111.913 118.574 112.87 118.738L113.858 118.906C114.505 119.018 115.023 119.107 115.407 119.17C115.618 119.204 116.036 119.289 116.836 119.484C117.694 119.696 118.268 119.824 118.698 119.901C119.584 120.06 120.482 119.862 121.215 119.35L121.719 118.997L122.182 119.402C123.494 120.545 125.072 121.321 126.879 121.71C128.788 122.122 130.64 122.038 132.42 121.435L133.014 121.235L133.345 121.77C133.815 122.532 134.568 123.078 135.463 123.306C135.751 123.379 136.128 123.463 136.689 123.577C137.25 123.693 137.505 123.757 137.61 123.784C138.77 124.091 139.321 124.294 139.548 124.387L139.57 124.396C139.722 124.464 139.955 124.565 140.21 124.635C140.515 124.719 140.83 124.767 141.146 124.758L141.345 124.756L141.522 124.849C141.752 124.97 141.999 125.068 142.252 125.14C142.544 125.225 142.942 125.327 143.548 125.473C144.113 125.609 144.414 125.691 144.568 125.737C144.724 125.782 145.031 125.88 145.615 126.087C146.225 126.304 146.635 126.442 146.942 126.536C147.309 126.649 147.677 126.706 148.034 126.706C149.683 126.706 150.798 125.525 151.135 124.426L151.142 124.408C151.388 123.593 151.327 123.165 150.796 120.192L150.71 119.714L151.092 119.418C151.336 119.23 151.564 119.025 151.768 118.813C152.546 117.998 153.15 116.901 153.561 115.549C154.298 113.125 153.781 110.758 152.103 108.88C150.886 107.533 149.199 106.543 147.08 105.942Z" fill="black"/>
<path id="Path_6" d="M43.4182 99.0954C43.416 99.0932 43.4137 99.0909 43.4114 99.0909C43.4137 99.0932 43.416 99.0932 43.4182 99.0954Z" fill="black"/>
</g>
<g id="Group_3">
<path id="Shape" fill-rule="evenodd" clip-rule="evenodd" d="M16.8697 118.136C17.9016 116.482 18.2049 114.727 17.741 112.86C17.2748 110.987 16.1772 109.556 14.4098 108.587C12.6447 107.62 10.7234 107.407 8.6867 107.958C6.64321 108.509 5.09985 109.66 4.0815 111.38C3.06542 113.098 2.86401 114.882 3.44107 116.724C4.01588 118.562 5.1949 119.916 6.94646 120.818C8.70028 121.72 10.522 121.907 12.4523 121.384C14.3759 120.864 15.8378 119.791 16.8697 118.136ZM11.7304 112.762C12.2736 113.067 12.6243 113.513 12.7827 114.098C12.9411 114.678 12.8597 115.229 12.5474 115.753C12.2351 116.278 11.7734 116.622 11.1624 116.787C10.5559 116.951 9.98114 116.887 9.43123 116.591C8.88132 116.296 8.5215 115.864 8.3563 115.296C8.18658 114.709 8.25221 114.149 8.55997 113.616C8.86774 113.082 9.34071 112.729 9.97661 112.558C10.5989 112.389 11.1851 112.458 11.7304 112.762Z" fill="white"/>
<path id="Shape_2" fill-rule="evenodd" clip-rule="evenodd" d="M30.5547 112.711C31.2676 111.613 31.4826 110.242 31.1725 108.6C30.8874 107.08 30.1429 105.944 28.9276 105.202C27.7101 104.464 26.2641 104.258 24.6076 104.596C24.2523 104.667 23.725 104.789 23.0235 104.962C22.3219 105.136 21.7947 105.262 21.4416 105.34C21.0275 105.431 20.4052 105.553 19.5747 105.716C18.7442 105.878 18.1218 106.009 17.71 106.104C17.538 106.144 17.4746 106.233 17.5221 106.369C17.5284 106.388 17.5336 106.404 17.5386 106.419C17.5462 106.441 17.5533 106.462 17.5629 106.493C18.3029 108.742 18.8799 110.736 19.2986 112.471C19.4638 113.151 19.6697 114.18 19.9232 115.56C20.1766 116.94 20.3848 117.969 20.55 118.649C20.593 118.824 20.7175 118.889 20.9257 118.84C21.1656 118.784 21.5231 118.689 22.0006 118.556C22.4781 118.422 22.8357 118.329 23.0755 118.276C24.1686 118.031 24.9991 117.893 25.5648 117.849C25.6825 117.844 25.7617 117.836 25.807 117.827C25.9337 117.8 25.9835 117.716 25.9518 117.576C25.8997 117.344 25.7957 116.998 25.635 116.538C25.4743 116.078 25.3679 115.729 25.3159 115.491C25.2752 115.302 25.4223 115.171 25.7617 115.1C25.8884 115.073 26.0808 115.044 26.3388 115.013C26.5945 114.984 26.7868 114.956 26.9158 114.929C28.6063 114.584 29.8125 113.851 30.5547 112.711ZM24.1686 108.702C25.11 108.507 25.6734 108.86 25.8635 109.758C26.0604 110.684 25.6689 111.247 24.6958 111.451C24.5012 111.493 24.3926 111.464 24.3722 111.367C24.3405 111.227 24.2885 111.02 24.2161 110.749C24.1414 110.478 24.0916 110.271 24.0599 110.131C23.8631 109.236 23.8993 108.758 24.1686 108.702Z" fill="white"/>
<path id="Path_7" d="M42.1955 105.451C42.2136 105.576 42.148 105.647 42.0032 105.667C42.1684 105.644 41.3333 105.704 39.498 105.88C39.6361 106.969 39.7311 107.671 39.7786 107.984C39.894 108.742 40.1022 109.876 40.401 111.382C40.6997 112.889 40.9056 114.02 41.0188 114.771C41.0459 114.956 40.9644 115.062 40.7744 115.091C40.5073 115.131 40.0955 115.178 39.5433 115.233C38.9911 115.289 38.577 115.34 38.3032 115.382C38.0407 115.424 37.6514 115.498 37.1332 115.607C36.615 115.716 36.2257 115.793 35.9655 115.838C35.755 115.873 35.6351 115.802 35.6034 115.624C35.4722 114.876 35.307 113.738 35.1101 112.216C34.9132 110.693 34.7503 109.553 34.619 108.798C34.567 108.498 34.4357 107.82 34.2252 106.767C33.6504 106.902 32.7905 107.118 31.6477 107.422C31.5345 107.398 31.4757 107.38 31.4734 107.367C31.4599 107.3 31.4576 106.976 31.4666 106.398C31.478 105.769 31.4893 105.396 31.478 105.293C31.4236 104.749 31.3354 104.036 31.3037 103.224C31.315 103.171 31.3603 103.138 31.4418 103.124C31.4689 103.12 31.5232 103.116 31.607 103.116C32.9738 103.016 34.6348 102.802 36.5969 102.496C37.1943 102.402 38.3099 102.16 39.9348 101.78C40.7449 101.591 41.1817 101.491 41.2428 101.484C41.4442 101.456 41.5528 101.489 41.5664 101.582C41.5981 101.804 41.6275 102.142 41.6592 102.593C41.6886 103.047 41.7203 103.382 41.752 103.604C41.7814 103.813 41.8561 104.122 41.9737 104.527C42.0914 104.933 42.1661 105.24 42.1955 105.451Z" fill="white"/>
<path id="Shape_3" fill-rule="evenodd" clip-rule="evenodd" d="M56.1717 111.669C57.4548 110.2 58.0386 108.518 57.8915 106.602C57.7422 104.68 56.8981 103.091 55.3253 101.858C53.7548 100.622 51.9059 100.104 49.8217 100.32C47.7307 100.536 46.0289 101.424 44.7526 102.956C43.4762 104.487 42.9874 106.216 43.2522 108.124C43.5147 110.027 44.4471 111.553 46.0153 112.724C47.5836 113.896 49.3374 114.371 51.313 114.167C53.2818 113.962 54.8908 113.136 56.1717 111.669ZM52.0168 105.542C52.5011 105.931 52.7704 106.427 52.8292 107.029C52.888 107.627 52.7206 108.158 52.3291 108.62C51.9376 109.087 51.4307 109.353 50.8038 109.418C50.1838 109.482 49.6316 109.327 49.1405 108.947C48.6517 108.569 48.3688 108.087 48.301 107.498C48.2285 106.891 48.3869 106.349 48.7739 105.873C49.1609 105.398 49.6814 105.124 50.3331 105.058C50.969 104.991 51.5325 105.153 52.0168 105.542Z" fill="white"/>
<path id="Path_8" d="M74.8794 112.18C74.8817 112.36 74.7753 112.451 74.5626 112.453C74.3114 112.456 73.9335 112.447 73.4288 112.429C72.9242 112.411 72.5417 112.404 72.2838 112.409C72.0326 112.413 71.6524 112.433 71.1409 112.469C70.6295 112.504 70.2493 112.529 69.9981 112.536C69.799 112.54 69.6949 112.429 69.6881 112.198C69.6768 111.78 69.6768 111.149 69.6904 110.302C69.7039 109.456 69.7062 108.824 69.6926 108.407C69.6881 108.227 69.6655 108.136 69.6247 108.138C69.5003 108.142 69.102 108.938 68.4548 110.531C67.8053 112.124 67.4274 112.927 67.2984 112.931C67.1196 112.938 66.667 112.169 65.9202 110.629C65.1757 109.089 64.7276 108.324 64.5964 108.331C64.5579 108.333 64.542 108.424 64.5511 108.604C64.5715 109.022 64.6235 109.651 64.705 110.493C64.7864 111.336 64.8362 111.964 64.8589 112.382C64.8702 112.613 64.7797 112.733 64.5873 112.742C64.3293 112.756 63.9469 112.762 63.4377 112.764C62.9285 112.767 62.5461 112.778 62.2881 112.791C62.0369 112.807 61.6612 112.84 61.1589 112.898C60.6565 112.956 60.2808 112.993 60.0296 113.009C59.8169 113.022 59.706 112.94 59.6924 112.76C59.6427 112.082 59.6019 111.062 59.5702 109.698C59.5386 108.336 59.5001 107.313 59.4503 106.636C59.3982 105.913 59.2919 104.833 59.1244 103.391C58.957 101.949 58.8483 100.869 58.7963 100.147C58.7872 100.011 58.9343 99.9311 59.2398 99.9111C59.4639 99.8955 59.7988 99.8644 60.2446 99.8178C60.6904 99.7711 61.0253 99.7422 61.2494 99.7289C61.5006 99.7133 61.8808 99.6644 62.3945 99.5844C62.9059 99.5022 63.2883 99.4578 63.5395 99.4444C63.6006 99.4422 63.7296 99.5711 63.9265 99.8378C64.7208 100.898 65.5649 102.129 66.4543 103.536C66.7688 104.036 66.9476 104.284 66.9951 104.282C67.0947 104.278 67.2463 104.036 67.4477 103.553C67.6627 103.036 67.9908 102.384 68.4457 101.62C69.0907 100.533 69.4754 99.9044 69.5727 99.7333C69.7198 99.4622 69.8556 99.3222 69.9778 99.32C70.229 99.3133 70.6137 99.3155 71.1296 99.3289C71.6456 99.3422 72.0326 99.3489 72.2905 99.3444C72.5417 99.34 72.9129 99.3133 73.4039 99.2667C73.895 99.22 74.2661 99.1955 74.5173 99.1933C74.6803 99.1911 74.7617 99.2622 74.764 99.4067C74.7708 100.142 74.7436 101.249 74.6893 102.727C74.635 104.204 74.6124 105.316 74.6192 106.058C74.626 106.738 74.669 107.758 74.7482 109.12C74.8319 110.48 74.8726 111.5 74.8794 112.18Z" fill="white"/>
<path id="Shape_4" fill-rule="evenodd" clip-rule="evenodd" d="M94.1267 109.002C94.052 110.06 93.6062 110.964 92.8028 111.716C91.9746 112.493 91.0264 112.851 89.9537 112.793C89.522 112.77 88.9318 112.733 88.1832 112.685L88.1816 112.685C87.9183 112.668 87.6355 112.65 87.3332 112.631C86.17 112.558 85.2987 112.516 84.7217 112.496C84.3868 112.484 83.8844 112.482 83.2145 112.489C82.5447 112.496 82.0468 112.498 81.7187 112.491C81.506 112.487 81.4019 112.396 81.4064 112.213C81.42 111.533 81.4788 110.513 81.5829 109.153C81.6893 107.793 81.7481 106.773 81.7617 106.093C81.7753 105.382 81.7707 104.024 81.7345 102.024C81.7255 101.507 81.7028 100.736 81.6689 99.7133C81.6678 99.6867 81.6666 99.6672 81.6655 99.6478C81.6644 99.6283 81.6632 99.6089 81.6621 99.5822C81.6508 99.4378 81.7368 99.3689 81.9201 99.3711C84.7081 99.4267 86.1021 99.4711 88.8901 99.6022C90.5987 99.6822 91.9271 100.064 92.8685 100.736C93.3165 101.058 93.656 101.504 93.8959 102.076C94.1199 102.616 94.215 103.16 94.1765 103.707C94.1448 104.142 93.914 104.64 93.4863 105.198C93.0663 105.748 92.8558 105.995 92.8526 105.939C92.8538 105.991 92.9308 106.078 93.0835 106.202C93.871 106.842 94.215 107.778 94.1267 109.002ZM88.7227 103.527C88.7453 103.04 88.2361 102.771 87.1906 102.729C86.9553 102.72 86.8127 102.764 86.7629 102.862C86.7403 102.904 86.7244 103.067 86.7131 103.347C86.7018 103.62 86.7086 103.789 86.7335 103.853C86.7901 103.962 86.9439 104.02 87.1974 104.031C88.1954 104.073 88.7046 103.907 88.7227 103.527ZM87.0707 107.482C88.2655 107.529 88.8494 107.816 88.8245 108.327C88.8109 108.627 88.5756 108.804 88.123 108.864C87.9578 108.882 87.6093 108.88 87.0729 108.858C86.7855 108.844 86.6113 108.789 86.5502 108.687C86.5185 108.629 86.5094 108.444 86.523 108.133C86.5343 107.816 86.5524 107.638 86.5728 107.602C86.6294 107.511 86.7946 107.471 87.0707 107.482Z" fill="white"/>
<path id="Shape_5" fill-rule="evenodd" clip-rule="evenodd" d="M107.288 112.687C108.854 111.513 109.784 109.987 110.044 108.082C110.304 106.173 109.815 104.447 108.539 102.911C107.263 101.38 105.563 100.496 103.479 100.282C101.388 100.069 99.5368 100.589 97.9663 101.827C96.3935 103.067 95.554 104.656 95.4069 106.578C95.2598 108.493 95.8482 110.176 97.1313 111.642C98.4144 113.109 100.028 113.933 102.004 114.136C103.972 114.338 105.722 113.86 107.288 112.687ZM104.515 105.849C104.907 106.327 105.068 106.869 104.997 107.469C104.927 108.062 104.651 108.549 104.165 108.924C103.683 109.302 103.13 109.458 102.504 109.393C101.886 109.331 101.377 109.064 100.978 108.593C100.58 108.124 100.408 107.593 100.465 107.004C100.524 106.396 100.793 105.898 101.273 105.511C101.752 105.124 102.318 104.964 102.97 105.031C103.608 105.098 104.124 105.371 104.515 105.849Z" fill="white"/>
<path id="Path_9" d="M120.615 112.329C120.556 112.653 120.393 113.309 120.135 114.287C119.866 115.313 119.683 115.947 119.583 116.176C119.524 116.309 119.429 116.367 119.296 116.344C118.92 116.28 118.365 116.156 117.628 115.978C116.89 115.8 116.333 115.682 115.955 115.622C115.394 115.533 114.557 115.389 113.437 115.202C112.316 115.016 111.477 114.887 110.913 114.809C110.633 114.769 110.486 114.671 110.495 114.533C110.517 114.1 110.61 113.338 110.54 112.491C110.497 111.976 110.422 111.642 110.431 111.58C110.438 111.531 111.176 110.696 112.681 109.098C114.186 107.498 114.98 106.587 115.019 106.34C115.039 106.218 114.962 106.142 114.79 106.116C113.539 105.929 112.912 105.838 111.66 105.667C111.481 105.642 111.405 105.547 111.427 105.38C111.457 105.164 111.538 104.88 111.669 104.536C111.837 104.093 111.945 103.816 111.982 103.7C112.31 102.542 112.488 101.878 112.513 101.704C112.531 101.576 112.629 101.522 112.805 101.547C113.095 101.587 113.527 101.693 114.1 101.867C114.672 102.04 115.107 102.151 115.401 102.196C117.872 102.564 119.105 102.764 121.568 103.196C121.728 103.224 121.81 103.329 121.81 103.513C121.826 104.302 121.731 105.247 121.529 106.353C121.495 106.538 121.378 106.72 121.174 106.898C120.556 107.449 119.73 108.231 118.705 109.238C117.349 110.571 116.664 111.327 116.637 111.487C116.625 111.549 116.68 111.589 116.795 111.607C117.546 111.729 118.123 111.811 118.531 111.856C118.915 111.896 119.49 111.933 120.251 111.971C120.398 111.971 120.486 111.976 120.52 111.98C120.624 111.998 120.656 112.116 120.615 112.329Z" fill="white"/>
<path id="Shape_6" fill-rule="evenodd" clip-rule="evenodd" d="M133.027 117.251C134.718 116.249 135.813 114.829 136.279 112.964C136.745 111.093 136.444 109.324 135.333 107.667C134.222 106.009 132.62 104.949 130.563 104.516C128.499 104.082 126.596 104.404 124.894 105.469C123.19 106.533 122.178 108.027 121.825 109.922C121.472 111.811 121.875 113.547 122.998 115.14C124.12 116.733 125.641 117.722 127.591 118.133C129.538 118.542 131.337 118.251 133.027 117.251ZM130.999 110.156C131.339 110.673 131.439 111.229 131.305 111.818C131.171 112.402 130.841 112.856 130.321 113.18C129.796 113.504 129.228 113.602 128.61 113.471C127.999 113.342 127.519 113.024 127.173 112.513C126.824 112.002 126.711 111.458 126.831 110.878C126.956 110.278 127.277 109.811 127.797 109.478C128.318 109.144 128.902 109.044 129.544 109.18C130.173 109.311 130.66 109.638 130.999 110.156Z" fill="white"/>
<path id="Shape_7" fill-rule="evenodd" clip-rule="evenodd" d="M147.929 122.907C148.097 122.958 148.192 122.951 148.212 122.884C148.233 122.82 148.097 121.92 147.778 120.178C147.461 118.442 147.3 117.538 147.323 117.467C147.352 117.371 147.459 117.296 147.642 117.238C148.5 116.969 149.149 116.616 149.584 116.171C150.018 115.729 150.371 115.078 150.638 114.22C151.05 112.898 150.792 111.707 149.846 110.673C149.036 109.791 147.848 109.127 146.304 108.7C145.578 108.498 144.487 108.209 143.028 107.844C142.155 107.627 141.414 107.445 140.805 107.295C140.394 107.194 140.044 107.108 139.753 107.036C139.59 106.994 139.479 106.968 139.421 106.954C139.385 106.945 139.37 106.941 139.375 106.942C139.233 106.927 139.151 106.98 139.133 107.104L139.11 107.233C138.71 109.567 138.284 111.596 137.841 113.324C137.667 114 137.368 115.009 136.942 116.347C136.517 117.687 136.221 118.693 136.046 119.371C136.001 119.547 136.083 119.66 136.291 119.711C136.531 119.769 136.893 119.847 137.379 119.944C137.866 120.042 138.23 120.122 138.468 120.184C139.561 120.464 140.364 120.718 140.882 120.936C140.989 120.984 141.066 121.016 141.109 121.027C141.235 121.062 141.317 121.009 141.355 120.871C141.462 120.487 141.588 119.873 141.733 119.033C141.878 118.193 142.005 117.569 142.12 117.16C142.177 116.962 142.233 116.871 142.29 116.887C142.367 116.909 142.414 117.06 142.43 117.342C142.524 118.342 142.609 119.12 142.668 119.661C142.674 119.72 142.68 119.776 142.686 119.829C142.723 120.165 142.751 120.458 142.775 120.704C142.793 120.894 142.809 121.057 142.824 121.189C142.851 121.358 142.969 121.471 143.182 121.531C143.437 121.602 143.826 121.698 144.349 121.82C144.87 121.942 145.261 122.042 145.524 122.118C145.791 122.193 146.191 122.324 146.723 122.507C147.253 122.691 147.655 122.824 147.929 122.907ZM143.894 111.9C144.974 112.191 145.415 112.682 145.22 113.36C145.019 114.06 144.397 114.264 143.351 113.984C143.086 113.913 142.967 113.833 142.991 113.742C143.019 113.651 143.048 113.516 143.086 113.331C143.123 113.147 143.154 113.011 143.179 112.92C143.39 112.169 143.627 111.827 143.894 111.9Z" fill="white"/>
</g>
<path id="Path_10" d="M90.7245 101C85.8706 101 77.3421 98.8729 74.1782 98.0346C75.4563 96.2819 77.5041 92.2496 76.496 85.2161C75.1548 75.8606 73.5661 71.0551 73.4986 70.8533L73.3951 70.544L73.1048 70.3939C66.3877 66.9152 65.9849 66.8166 65.7486 66.8144C65.6968 66.8099 65.6113 66.7964 65.4943 66.7807C64.961 66.709 63.9686 66.5745 62.8345 66.5745C61.9276 66.5745 61.113 66.6619 60.4132 66.8368C57.9536 67.4487 52.3954 73.0701 50.8045 75.1837L50.4219 75.6925L50.8315 76.1811C50.9282 76.2977 53.2595 79.0142 58.2169 79.0142C58.6917 79.0142 59.18 78.9896 59.6751 78.938C60.672 80.4308 63.7773 84.9561 65.8319 86.6753C65.258 88.1636 63.8089 92.1622 63.6018 95.1164C60.7687 95.6386 49.1865 97.7455 43.8421 98.2072C42.9847 98.2812 42.1611 98.3193 41.3893 98.3193C37.7033 98.3193 35.0705 97.4833 33.565 95.8381C32.3251 94.482 31.8188 92.5051 32.0573 89.9612C32.8742 81.2892 39.418 75.502 44.7759 73.1821L45.0617 73.0589L45.19 72.7742C45.2125 72.7227 47.5483 67.6325 50.764 65.9066C51.7541 65.3754 52.6789 64.8038 53.5723 64.2524C55.8361 62.8538 57.9739 61.5314 60.7237 61.1661C63.9551 60.738 65.1658 58.1514 65.4538 56.3403L102.752 55C102.91 55.8674 105.349 58.4495 106.63 59.3012C107.021 59.5612 107.676 59.949 108.504 60.4376C110.32 61.5135 115.145 64.3668 115.471 65.3238C116.092 67.1775 117.498 74.8587 116.819 76.8894C115.984 79.3841 112.257 87.7825 111.038 89.2394C109.87 90.6336 97.5001 100.119 92.2772 100.899C91.8451 100.966 91.3208 101 90.7245 101Z" fill="black"/>
<path id="Path_11" d="M64.8856 87C64.8856 87 63.5211 91.1365 63.2074 92.2846C62.8936 93.4327 63.0291 95 63.0291 95L69.9391 93.4606L72 92.9188L71.1466 91.3752L64.8856 87Z" fill="#949190"/>
<path id="Path_12" d="M75.6243 93.7529C75.6243 93.7529 76.3408 86.295 75.7949 83.0493C75.2512 79.8037 73.0721 70.3401 73.0721 70.3401L66.7758 66.8595C66.7758 66.8595 63.5685 65.789 62.7382 66.0374C61.908 66.2859 59.6492 66.1571 58.737 66.7624C57.8249 67.3677 51.2738 73.3169 51.2738 73.3169L50 75.2277C50 75.2277 53.4029 78.7083 55.7504 78.5818C58.0979 78.4553 59.3216 78.4282 59.3216 78.4282C59.3216 78.4282 62.9975 83.824 64.3601 85.0595C65.7226 86.295 71.1682 91.1623 71.1682 91.1623C71.1682 91.1623 74.3641 94.9929 75.6243 93.7529Z" fill="#B0AFAD"/>
<path id="Path_13" d="M70.2832 21L70 12.5463L77.5934 8L86 11.7443C86 11.7443 84.6431 17.3607 82.2033 18.9648C82.2033 18.9648 71.3796 20.3588 70.2832 21Z" fill="black"/>
<path id="Path_14" d="M74.0643 70.2278C72.006 69.7092 69.0983 64.0862 67.1747 60.3655C66.2871 58.6489 65.5209 57.1656 64.9501 56.3435C63.5794 54.3688 62.9412 50.4692 62.721 48.7639L66.6354 50.0797L65.7658 48.7639C64.3074 46.5582 58.8178 44.4567 57.11 43.8452C57.6448 42.2691 58.492 40.976 58.5009 40.9601L58.9459 40.2875L58.1594 40.129C58.047 40.1064 57.9257 40.095 57.7954 40.095C56.7392 40.095 55.0898 40.8854 54 41.4765C55.2741 37.1647 59.593 34.934 59.6402 34.9091L60.7076 34.3679L59.5998 33.9195C59.0402 33.6953 58.7009 33.4756 58.5032 33.3171C59.438 32.3524 60.8581 32.2392 61.4671 32.2392C61.6446 32.2392 61.757 32.2482 61.7682 32.2505L64.1322 32.4769L62.0963 31.245C61.6109 30.9506 61.366 29.9361 61.2851 28.8989C62.7996 30.1897 64.9996 30.4728 65.1186 30.4864L65.7658 30.5656L65.7186 29.9112C65.6445 28.883 65.3344 28.3282 65.2377 28.1765C64.0086 25.8892 64.2198 15.8729 65.0355 11.7559C65.6872 8.47222 67.6264 4.58617 68.2668 3.35876C70.5566 4.34159 72.3723 9.13575 73.0284 11.4094L69.3499 13.794V22.3565L70.0735 22.087C70.3746 21.9737 70.6218 21.9035 70.7858 21.856C70.9499 21.8084 71.024 21.788 71.1072 21.7382C71.6465 21.4936 77.0215 20.6829 81.7944 20.0488L82.0123 20.0194L82.1472 19.845C82.2708 19.6865 85.1897 15.9137 86.0144 12.313C86.6099 9.70642 90.203 4.34839 91.8389 2C91.9737 3.04398 92.1939 4.46615 92.5063 5.56221C92.6613 6.10798 93.0389 7.11572 93.5175 8.39522C94.7781 11.7604 96.6814 16.8467 97.0634 20.1168C97.5825 24.5554 96.5533 28.2716 96.5421 28.3078L96.3264 29.0755L97.1128 28.9963C98.742 28.8309 100.084 28.3848 100.926 28.0338C100.605 29.0529 99.9037 30.1444 99.5869 30.5702L98.9442 31.4375H100.018C103.029 31.4375 105.16 30.192 106.268 29.3337C106.108 31.7862 104.189 34.3316 104.166 34.3588L103.092 35.7651L104.762 35.2035C104.881 35.1628 105.002 35.1446 105.137 35.1446C105.728 35.1446 106.382 35.5296 106.894 35.9327C105.551 36.329 103.715 37.2349 103.277 37.4568L103.665 38.4623C103.719 38.4464 103.784 38.4396 103.859 38.4396C104.991 38.4396 107.326 40.1517 109 41.6078C106.724 42.1626 102.74 43.9856 102.218 44.2257C102.218 44.2257 97.924 44.8937 98.8903 46.6624C99.4723 47.5433 102.128 47.6452 102.025 48.4174C101.76 50.4148 97.8207 50.7454 98.8903 54.3847C99.4611 56.3503 99.9105 57.7091 99.8363 57.7589C93.3849 61.996 81.9337 68.1466 81.0753 69.0117C80.309 69.7816 77.9114 70.6648 76.871 71L74.0643 70.2278Z" fill="#EBE6E5"/>
<path id="Path_15" d="M96 28.3897C96 28.3897 92.3888 26.7788 91.292 24.0857C90.1951 21.3926 89.5631 12.6947 89.8379 10.2716C90.1127 7.84845 91.7568 3 91.7568 3C91.7568 3 88.3769 8.38617 87.5984 10.0038C86.8221 11.6192 86 16.7376 86 16.7376L87.6441 20.2384L90.1104 23.4715L91.2072 26.9723C91.2095 26.97 92.5674 30.3471 96 28.3897Z" fill="#B0AFAD"/>
<path id="Path_16" d="M82.2289 53.2407C82.2289 53.2407 83 52.6817 83 52.401C83 52.1203 81.9711 51 81.7134 51C81.4556 51 81.2 51.2807 81.2 51.2807L80.4289 52.401H77.6H76.0578L75.2866 51.5613L74.4833 51.0468L74.2578 51.5613L74 53.5213L74.2578 53.802L75.5444 54.6416C75.5444 54.6416 77.8578 55.2006 78.8866 54.9223C79.9155 54.6393 81.9711 53.519 82.2289 53.2407Z" fill="white"/>
<path id="Path_17" d="M87.5582 32.2196C87.5582 32.2196 86.1189 33 84.9702 33C83.8216 33 82.0939 32.4804 81.2313 30.137C80.3686 27.7958 82.0939 26.4937 83.5333 26.2328C84.9727 25.9719 86.9863 25.7132 87.849 26.7523C88.7116 27.7936 89 29.3544 89 30.1349C89 30.9153 88.4209 31.9587 87.5582 32.2196Z" fill="white"/>
<path id="Path_18" d="M75.7043 30.912C75.7043 30.912 76.4836 28.1366 75.5119 27.0237C74.5403 25.9109 73.9558 24.5936 71.6228 25.1192C69.2898 25.6448 69 28.0156 69 28.0156C69 28.0156 69 31.7015 69.8743 32.2271C70.7485 32.7527 71.0408 33.4653 74.5378 32.5834L75.7043 30.912Z" fill="white"/>
<path id="Path_19" d="M68.8402 4C68.8402 4 72.2463 8.81401 71.9858 11.2199C71.9376 11.6644 70.1317 13.3644 69.3656 13.3599C69.3656 13.3599 69.5932 17.3854 69.3656 19.244C69.1029 21.384 70.1514 22.186 70.1514 22.186C70.1514 22.186 66.22 25.6619 66.4827 27C66.4827 27 65.1627 21.6253 65.0357 19.7667C64.9088 17.9059 64.9088 6.67395 68.8402 4Z" fill="#EBE6E5"/>
<path id="Path_20" d="M55 39.2954C55 39.2954 58.3064 38.7579 58.8563 39.2954L56.8016 42.6685C56.8016 42.6685 57.9544 43.0935 59.3303 43.6422C59.71 43.7929 57.7864 45.8798 58.1822 46.0417C58.3731 46.1204 60.5245 45.7358 60.7132 45.8168C61.9879 46.3588 63.4927 45.4413 63.8148 45.7561C64.6409 46.5634 66.3297 47.6181 67.1558 48.9651L62.9888 48.1803C62.9888 48.1803 63.5433 54.099 64.6432 54.9086C65.743 55.7181 68.3591 60.0897 68.3591 60.0897C68.3591 60.0897 72.6297 68.102 73.7295 68.9094C74.8316 69.7167 78 70 78 70C78 70 77.8596 68.0998 75.9315 66.2153C74.0033 64.3309 73.7272 62.4464 73.7272 62.4464L77.0336 63.5236L75.2435 60.1729L72.3512 59.487L73.7295 57.3327C73.7295 57.3327 71.2514 53.5638 74.0792 51.2206L72.9771 47.7215C72.9771 47.7215 75.9338 44.9488 75.3816 43.604C74.9237 42.4864 71.8013 39.8351 71.8013 39.5652C71.8013 39.2954 70.1493 39.2954 70.4231 38.4881C70.6969 37.6808 70.147 37.4109 70.147 37.4109L70.4231 36.8735L70.1286 35.974C70.1286 35.974 72.625 33.262 73.1773 33.0483L74.7373 32.0701C74.7373 32.0701 71.7714 32.0476 70.9454 31.7778C70.1193 31.5079 68.0117 28.2022 69.4912 25L67.1166 31.4899L66.8405 32.5671H65.1885L64.9124 33.1045L62.4343 33.9118L61.3321 35.2589C61.3367 35.2566 55.5522 38.4881 55 39.2954Z" fill="#B2AEAD"/>
<path id="Path_21" d="M71.5579 33.8345C70.7437 32.4929 68.0291 31.9577 68.0291 31.9577C68.0291 31.9577 68.3012 31.9577 68.5711 29.8122C69.0814 25.7854 71.2858 22.8404 72.6442 22.8404C74.0027 22.8404 74.9575 25.1315 75.6311 26.3252C76.9895 28.7372 74.4245 31.9868 74.4245 31.9868C73.6104 32.2556 71.288 35.4402 71.288 35.4402C76.1754 32.9229 82.149 36.7817 82.149 36.7817C82.149 36.7817 81.0377 32.0786 80.2236 30.7394C79.4094 29.4001 78.8923 25.2546 81.0627 24.7171C82.1173 24.4574 82.691 22.3051 84.0495 22.3051C85.408 22.3051 88.8438 22.0297 89.209 23.1091C90.2953 26.3274 92.1958 30.3474 92.1958 30.3474L89.4811 31.4202L86.2221 33.0282C88.6647 32.2242 93.552 31.1514 93.552 31.1514C92.7378 31.4202 91.6515 32.2242 91.6515 32.2242C94.3662 31.1514 98.7115 31.9555 98.7115 31.9555C98.1694 32.7595 94.3684 34.905 94.3684 34.905C95.1826 34.905 97.6274 35.1737 97.6274 35.1737L94.3684 38.1232C94.3684 38.1232 97.9835 38.4211 100.884 37.0505C102.109 36.4727 104.143 35.1737 104.143 35.1737C105.771 32.4929 106.858 29.5434 106.858 29.5434C108.139 28.9119 100.342 30.8849 100.342 30.8849C100.757 29.2053 101.97 27.4002 101.97 27.4002C100.342 27.9354 99.2558 27.9354 99.2558 27.9354C93.5543 29.8122 91.9259 23.9131 91.3816 22.3051C90.8396 20.6971 90.5674 18.5516 90.5674 18.5516L88.9391 19.0869C88.9391 16.9413 89.7533 14.5293 89.7533 14.5293C89.4811 14.2606 87.5806 16.1373 87.5806 16.1373C87.8528 11.3111 92.4679 3 92.4679 3C91.1095 3.26875 86.7664 11.3111 84.8659 16.1373C83.7139 19.0622 82.4234 19.3556 82.4234 19.3556L74.8214 20.4284L72.3789 20.6971C68.3058 21.2324 66.9496 26.3274 66.9496 26.8627C66.9496 27.3979 66.6774 29.8122 66.6774 29.8122C65.8632 29.8122 61.7901 28.4707 61.7901 28.4707C61.7901 30.0787 64.2326 31.6889 64.2326 31.6889C60.7038 31.1537 59.0731 32.4929 59.0731 32.4929L61.5157 33.5657C56.3562 35.9777 55 40 55 40C57.1726 38.392 65.0445 35.9777 65.0445 35.9777C63.686 35.9777 62.8719 35.1737 62.8719 35.1737C64.7724 33.8322 67.487 34.3697 67.487 34.3697C66.6729 34.101 65.5865 33.0282 65.5865 33.0282C65.5865 33.0282 67.6458 33.0282 68.3012 33.0282C69.6574 33.0304 71.5579 33.8345 71.5579 33.8345Z" fill="#B1B0AE"/>
<path id="Path_22" d="M72 67C72 67 63.3918 52.2875 63.3918 50.4318C63.3918 50.4318 65.6183 49.6745 66.4359 49.7675C68.3928 49.989 69.2625 50.4318 69.1364 50.0975C68.8015 49.2051 65.9814 45.8857 62.522 46.003C62.522 46.003 65.3378 47.6993 65.5444 48.1023L61 48.4389C61 48.4389 61.6849 50.5226 61.6523 51.3176C61.6197 52.1126 64.7116 55.401 65.2334 56.1959C65.7531 56.9909 69.6582 66.143 72 67Z" fill="#949190"/>
<path id="Path_23" d="M73 11.3168C73 11.3168 71.9995 4.10705 69 3C69 3 72.6261 8.94056 71.6256 12L73 11.3168Z" fill="#94908A"/>
<path id="Path_24" d="M74.6425 52.0265L74.5407 50.7253C74.5407 50.7253 74 49.0205 74 48.4506C74 47.8808 74.4344 46.2377 75.3009 46.0643C76.1674 45.891 76.8778 45.7723 76.8778 45.7723C76.8778 45.7723 79.3371 46.1878 79.6833 46.5083C79.6833 46.5083 82.2172 46.1403 82.4887 46.1403C82.7602 46.1403 84.6176 44.7537 85.267 45.0386C85.9163 45.3235 87 46.4609 87 46.4609C87 46.4609 86.4593 48.1657 86.4593 48.4506C86.4593 48.7355 84.2919 52.9976 84.0226 52.9976L83.7511 52.4301C83.7511 52.4301 82.9389 51.5777 82.6674 51.5777C82.6674 51.5777 82.3959 51.5777 82.1267 51.8627C81.8575 52.1476 81.3145 53 81.3145 53H76.7104L75.6267 51.8627L75.086 51.5777L74.6425 52.0265Z" fill="#850016"/>
<path id="Path_25" d="M75.1224 43C75.1224 43 71.995 41.5791 70.9954 40.8896C70.0418 40.2309 68.2449 38.2526 69.3456 36.6709C70.4463 35.0891 72.0961 33.7695 75.3982 34.0339C78.7002 34.2983 82 35.6156 82 36.9352C82 38.2548 80.8993 39.8365 78.6979 40.8918C76.4989 41.9448 75.1224 43 75.1224 43Z" fill="url(#paint0_linear_0_477)"/>
<path id="Path_26" d="M67 39C67 39 67.499 38.2003 68 38C68 38 67.2505 38.2003 67 38.399V39Z" fill="black"/>
<path id="Path_27" d="M70 40.8431C70 40.8431 70 38.7266 70.8828 39.0297C71.7656 39.3328 72.6484 39.6333 72.6484 40.5426C72.6484 41.4518 72.4689 42.7348 73 43C73.0025 42.9975 70.2951 41.7498 70 40.8431Z" fill="black"/>
<path id="Path_28" d="M78.1434 42C78.1434 42 77.5735 39 78.7062 39C79.8389 39 79.8389 39 80.4041 39.7782C80.9693 40.5564 81 40.3027 81 40.3027C81 40.3027 79.2785 41.8873 78.1434 42Z" fill="black"/>
<path id="Path_29" d="M71 36.1853C71 36.1853 71.8274 37.2169 74.5863 36.9584C77.3451 36.7 79 35.6684 79 35.6684C79 35.6684 74.5886 33.8636 71 36.1853Z" fill="white"/>
<path id="Path_30" d="M96.806 29C96.806 29 93.6461 27.2066 93.1599 24.2923C92.6738 21.378 93.1599 24.0681 93.1599 24.0681L92.2509 24.8796C92.2509 24.8796 90 18.6879 90 16.8945C90 15.1011 90.4181 4.57372 92.2752 3C92.2752 3 91.7015 6.35817 92.1877 8.15158C92.3408 8.71426 92.686 9.52354 93.0943 10.4628C93.5586 11.5299 94.1322 14.4285 92.4307 16.4461C92.2193 16.6972 94.6184 14.8769 94.6184 14.8769C96.0768 19.1362 97.5353 22.0505 96.806 29Z" fill="#706E6D"/>
<path id="Path_31" d="M93 53.9977C93 53.9977 98.0701 54.2062 101.279 50.6268L103.108 48.2057C103.108 48.2057 100.122 46.8157 99.4324 46.1206C98.7432 45.4256 99.63 45.9376 99.63 45.9376C99.63 45.9376 107.014 41.7187 110 41.487C110 41.487 107.243 38.0118 102.878 38.2435L108.162 35.9267C108.162 35.9267 107.014 35 105.865 35C104.716 35 102.731 36.1399 102.731 36.1399C102.731 36.1399 97.1351 38.7069 94.1486 38.4752C94.1486 38.4752 98.7432 41.2554 102.419 40.792C102.419 40.792 98.973 44.2672 95.9865 44.0355C95.9865 44.0355 96.2162 48.4374 99.4324 49.3641C99.4324 49.3641 97.1351 53.071 93 53.9977Z" fill="#B1B0AE"/>
<path id="Path_32" d="M70 37C70 37 72.418 31.0392 77 32.1343C77 32.1343 73.0039 31.9303 70.8568 36.4067L70 37Z" fill="black"/>
<g id="Group_4">
<ellipse id="Oval" cx="84.2686" cy="42.6822" rx="0.696301" ry="0.664444" fill="black"/>
<ellipse id="Oval_2" cx="72.0029" cy="44.2778" rx="0.696301" ry="0.664444" fill="black"/>
<ellipse id="Oval_3" cx="69.4486" cy="43.9222" rx="0.619452" ry="0.591111" fill="black"/>
<ellipse id="Oval_4" cx="68.659" cy="41.8844" rx="0.477397" ry="0.455556" fill="black"/>
<ellipse id="Oval_5" cx="83.2931" cy="39.8889" rx="0.836027" ry="0.797778" fill="black"/>
<ellipse id="Oval_6" cx="80.7852" cy="43.0822" rx="0.836027" ry="0.797778" fill="black"/>
</g>
<path id="Path_33" d="M78.0025 16.7425C78.2693 16.394 79.2204 15.2466 80.3073 15.0379C80.4358 15.0142 80.5716 15 80.71 15C81.582 15 82.4145 15.4813 82.748 15.6994L83 19.3362C82.5529 19.3694 81.8192 19.431 81.0188 19.5187C79.7095 19.661 78.6991 19.8222 78 20V16.7425H78.0025Z" fill="black"/>
<path id="Path_34" d="M69.7127 21.9676C69.7127 21.9676 70.3591 11.9603 69.7127 10.8231L68.8508 12.6426C68.8508 12.6426 69.9282 5.13719 69.0663 4C69.0663 4 67.0063 7.47298 66.5279 9.26292C66.0495 11.0506 65.0346 16.2362 65.0044 18.7607C64.9721 21.2853 65.0906 27.3897 66.2176 29C66.2154 29 67.1894 24.2716 69.7127 21.9676Z" fill="#666463"/>
<path id="Shape_8" fill-rule="evenodd" clip-rule="evenodd" d="M83.585 14.9149C83.585 14.9149 84.1964 14.1259 85 14.2299L83.6962 16.6891L83.7425 17.408L83.3071 18.6812C83.3071 18.6812 82.8231 19.3323 81.6095 19.4775C80.396 19.6228 79.0088 19.8382 78.3163 20.1286V19.9084C77.0287 20.027 74.5994 20.2932 73.6035 20.7095V20.2254C72.5984 20.3537 70.9287 20.6127 70 21V16.4229C70 16.4229 70.5535 15.4959 71.9407 15.2054C72.0658 15.1788 72.1908 15.1667 72.3113 15.1667C73.0801 15.1667 73.7309 15.6508 74.1014 16.0041C74.5553 15.4789 75.2779 14.7988 76.1 14.6269C76.2552 14.5954 76.4081 14.5809 76.5609 14.5809C77.5984 14.5785 78.5456 15.2441 78.8027 15.4402C79.2543 14.9101 79.9838 14.2203 80.8129 14.046C80.968 14.0145 81.1209 14 81.2737 14C82.4896 14 83.585 14.9149 83.585 14.9149ZM70.8314 19.8333C71.7879 19.5985 72.8879 19.4388 73.6035 19.3492V16.7012C73.321 16.418 72.8208 16.0332 72.3113 16.0332C72.2418 16.0332 72.17 16.0405 72.1028 16.055C71.4243 16.1978 71.0213 16.5294 70.8314 16.7303V19.8333ZM74.4349 19.5695V16.9336C74.7916 16.4519 75.528 15.629 76.2622 15.4765C76.3571 15.4571 76.4567 15.4474 76.5586 15.4474C77.1167 15.4474 77.705 15.7403 78.0686 15.9703L78.2654 19.0394C77.2835 19.129 75.667 19.3008 74.4349 19.5695ZM79.1478 18.991C79.7661 18.8555 80.5512 18.732 81.5146 18.6158C82.0635 18.5481 82.5776 18.4972 82.9759 18.4633L82.9134 17.4685L82.7814 15.3942C82.4178 15.1642 81.8296 14.8714 81.2714 14.8714C81.1695 14.8714 81.0699 14.8811 80.975 14.9004C80.2409 15.0529 79.5044 15.8759 79.1478 16.3575V18.991Z" fill="white"/>
<path id="Path_35" d="M66.9997 26.9052C66.9997 26.9052 66.1332 22.2769 65.9996 20.0813C65.5006 11.8941 67.4987 5.90237 69 3.84814L68.4926 3C68.4926 3 68.217 4.05561 67.482 5.24575C66.7492 6.43588 65.0851 12.6396 65.0412 15.4052C64.9974 18.1708 64.9013 25.3343 65.3252 26.6658C65.749 27.9973 66.4986 29.9079 66.4986 29.9079L66.9976 31V26.9052H66.9997Z" fill="#94908A"/>
<path id="Path_36" opacity="0.3" d="M78 50C78 50 78.4446 46.5416 81.7788 46.0476C85.1131 45.5535 86 49.0712 86 49.0712C86 49.0712 83.3348 46.5416 81.112 47.2827C78.8891 48.0238 78 50 78 50Z" fill="white"/>
<path id="Path_37" d="M84 16V15.3997C84 15.3997 84.499 15.199 85 15L84 16Z" fill="#080240"/>
<path id="Path_38" d="M74 72L98.6789 74.8021L106.066 78.5795L110 81C110 81 99.2251 78.3515 94.3017 77.5409C89.376 76.7303 79.2526 76.7303 79.2526 76.7303C79.2526 76.7303 74.752 77.3693 74 72Z" fill="url(#paint1_linear_0_477)"/>
<path id="Path_39" d="M38 83C38 83 39.0688 78.1995 44.4106 75.9397C49.7523 73.6798 51.3566 76.2062 51.3566 76.2062L56 78.3316C56 78.3316 45.2116 73.9628 38 83Z" fill="url(#paint2_linear_0_477)"/>
<path id="Path_40" d="M74.6262 76.1992C74.6262 76.1992 76.2431 89.2953 75.9686 91.5866C75.6942 93.878 75.3123 94 75.3123 94C75.3123 94 72.9567 92.9062 71.8613 91.7363C70.7658 90.5665 64.0399 84.5032 62.7477 82.8474C61.4579 81.194 59.5414 77.3345 59.5414 77.3345L58 74C58 74 62.2812 75.9551 63.3744 78.4375L63.0999 74.8543C63.0999 74.8543 67.4794 80.3673 68.3028 84.7795C68.3028 84.7795 69.1238 80.92 68.3028 79.8169C68.3028 79.8169 68.8493 79.5406 69.3982 80.0933C69.9448 80.6436 71.8613 86.9856 73.5056 87.536C73.5056 87.536 75.1476 78.9902 74.6262 76.1992Z" fill="#949190"/>
<path id="Path_41" d="M54 72.0238C54 72.0238 57.4301 67.3794 59.1451 67.1724C60.8602 66.9653 65.064 66.8448 65.8643 67.4111C66.6645 67.9774 72.1733 70.7391 72.1733 70.7391L73 73C73 73 71.1527 71.2652 68.7785 70.0017C66.4043 68.7339 60.3355 66.4582 54 72.0238Z" fill="white"/>
<path id="Path_42" d="M75 97.4898C75 97.4898 84.9692 101.038 88.8864 101C92.8036 100.962 102.269 96.0828 104.521 94.5174C106.772 92.952 110.333 90.178 110.333 90.178L113.765 84.7236L114.801 82.2373L117 76.6692L116.906 74C116.906 74 114.167 79.606 112.25 82.2752C110.333 84.9444 87.5982 96.6915 80.7499 92.419L76.5284 90.1735L75 97.4898Z" fill="url(#paint3_linear_0_477)"/>
<path id="Path_43" opacity="0.42" d="M49.3694 67.0359C49.3694 67.0359 44.508 72.2079 45.0408 73C45.0408 73 62.0488 61.6411 64.4395 62.9628C66.8302 64.2845 68 65.284 68 65.284L63.9089 59C63.9089 59 55.6713 62.4333 53.5448 63.4901C51.4182 64.5493 50.2417 66.3541 49.3694 67.0359Z" fill="#080240"/>
<g id="Group_5">
<path id="Path_44" d="M74.3276 53.8333L74.5995 51.7045C74.5995 51.7045 75.6847 52.2356 75.9566 53.0356C75.9566 53.0356 80.5671 53.3022 81.1109 53.0356C81.1109 53.0356 81.3827 51.9711 81.9242 51.7045C81.9242 51.7045 83.0095 51.7045 83.347 52.7733L83.2813 53.0356L83.5532 52.7689C83.5532 52.7689 83.5532 51.4378 81.9265 51.1733C81.9265 51.1733 81.1131 51.9711 80.8412 52.5045C80.8412 52.5045 76.5026 52.7711 76.2307 52.5045C76.2307 52.5045 75.4173 51.44 74.604 51.1733C74.604 51.1733 74.3321 51.1733 74.0625 51.9711L74.3276 53.8333Z" fill="black"/>
<path id="Shape_9" fill-rule="evenodd" clip-rule="evenodd" d="M90.8601 34.7593C91.0523 34.6422 91.2401 34.5277 91.4152 34.4133C92.2286 33.8822 93.8553 34.1467 93.8553 34.1489C92.77 34.1489 91.4129 35.48 90.8714 36.0111C90.4019 36.4736 89.5234 39.1352 89.1211 40.3544C89.0594 40.5411 89.009 40.694 88.9729 40.8C88.701 41.5978 87.8876 44.5244 87.6157 45.5889C87.3439 46.6533 85.7579 51.4978 83.8593 53.36C81.9607 55.2222 80.8868 55.8244 78.7164 55.8244C76.5482 55.8244 74.2735 55.3489 73.732 54.2844C73.4363 53.7032 73.5601 53.3062 73.6892 52.8923C73.7965 52.5481 73.9075 52.1921 73.7841 51.7089C73.5838 50.9247 73.0404 49.2792 72.7147 48.293C72.5983 47.9406 72.5098 47.6724 72.4746 47.5578C72.4585 47.5184 72.249 47.4548 71.9133 47.3529C70.4477 46.9078 66.5778 45.7325 65.9179 42.6622C65.779 42.0173 66.1007 40.9944 66.3796 40.1076C66.5648 39.5186 66.7312 38.9895 66.7312 38.6711C66.7312 37.6067 65.646 37.34 65.1045 37.34C65.1045 37.34 67.463 36.7978 67.275 38.4044C67.2348 38.749 67.0821 39.2816 66.9137 39.869C66.5878 41.0053 66.2032 42.3465 66.4616 42.9267C67.0393 44.2222 69.7581 46.6667 72.4768 46.4444C72.4768 46.4444 74.5997 46.12 75.1389 45.0556C75.1389 45.0556 75.0121 43.8378 74.9056 43.4444C74.8481 43.2313 74.7656 42.9721 74.6729 42.6809C74.2872 41.4691 73.7253 39.7034 74.056 38.4044C74.056 38.4044 75.114 41.7911 75.3836 43.1933C75.4584 43.5733 75.5604 44.4444 75.6238 45.0244C77.0964 46.3533 82.3663 46.3533 84.1221 44.9756C85.0692 44.2311 88.4314 40.2667 88.7032 39.7356C88.8381 39.4711 89.106 38.8798 89.3751 38.2861C89.6486 37.6826 89.9233 37.0766 90.0604 36.8089C90.3322 36.2756 90.3322 35.7444 90.3322 35.7444C89.7885 35.7444 88.9751 36.2756 88.9751 36.2756C89.4 35.6496 90.1597 35.1864 90.8601 34.7593ZM78.9384 54.8978C82.1918 54.6333 83.5489 52.5044 83.5489 52.5044C83.5489 52.5044 84.4325 51.1444 85.1711 49.7422C85.1371 48.7267 84.1086 47.7222 83.4175 47.3844C81.3105 46.3511 78.5011 47.7289 78.5011 47.7289C76.4983 46.42 74.8965 47.1511 73.7569 48.84C73.7637 48.9067 73.7728 48.9756 73.7864 49.0444C74.056 50.3733 74.3279 52.5022 74.3279 52.5022V53.8333C74.3279 53.8333 75.6827 55.1644 78.9384 54.8978Z" fill="black"/>
<path id="Path_45" d="M80.501 47.1045C80.501 47.1045 78.5027 47.7311 77.4492 50.1422C77.4492 50.1422 77.4492 47.0422 80.2586 46.6978L80.501 47.1045Z" fill="black"/>
</g>
<g id="Group_6">
<path id="Path_46" d="M77.2539 23.4253C77.2539 23.4253 77.2539 25.964 78.9154 26.2463C80.5768 26.5287 81.686 25.964 82.5179 25.117C83.3497 24.27 83.902 20.8867 86.1204 22.0137C88.3387 23.1407 89.1683 29.065 89.9979 29.3473C89.9979 29.3473 89.7206 28.218 89.4433 26.8087C89.166 25.3993 88.3341 20.6043 86.6727 20.322C85.0112 20.0397 83.3474 20.322 81.9633 22.296C80.9435 23.7473 78.6381 25.3993 77.2539 23.4253Z" fill="black"/>
<path id="Path_47" d="M89.1659 29.6297C89.1659 29.6297 88.8886 30.759 87.5044 31.886C86.1202 33.013 85.5657 33.2953 84.1792 33.2953C82.7927 33.2953 80.854 31.6037 80.854 29.3473C80.854 27.091 82.7675 26.0363 84.1792 25.9617C85.5473 25.8893 86.9498 26.244 87.7817 27.6533C88.6136 29.0627 89.1659 29.0627 89.1659 29.0627C89.1659 29.0627 89.1705 29.0487 89.1613 29.0417C88.3661 28.4747 88.2469 27.4643 87.2271 26.524C86.6634 26.006 84.7338 24.8323 83.0723 25.3947C81.4109 25.957 80.0244 27.651 80.0244 29.3427C80.0244 31.0343 81.1336 34.1377 84.7338 33.8553C88.334 33.573 89.1659 29.6297 89.1659 29.6297Z" fill="black"/>
<path id="Path_48" d="M75.5895 23.143C75.5895 23.143 76.6987 25.117 75.5895 26.811C74.957 27.7793 73.3735 27.3757 73.0962 26.5287C72.8189 25.6817 71.987 23.99 70.3256 24.2723C68.6641 24.5547 68.1095 26.811 68.1095 27.658C68.1095 27.658 67.2456 23.8873 70.6029 22.863C73.3735 22.016 74.4804 24.2723 74.7576 24.5547C75.4658 25.271 75.5895 24.27 75.5895 23.143Z" fill="black"/>
<path id="Path_49" d="M74.2536 27.3547C74.2536 27.3547 74.7577 28.2203 74.4827 29.3497C74.2077 30.479 72.8213 32.7353 72.8213 32.7353C72.8213 32.7353 75.8692 31.8883 77.2534 32.1707C77.2534 32.1707 75.5919 31.3237 74.2055 31.8883C74.2055 31.8883 76.0892 29.058 74.9823 27.1027L74.2536 27.3547Z" fill="black"/>
<path id="Path_50" d="M71.9898 25.3993C71.9898 25.3993 71.1579 25.117 70.3283 25.3993C69.3819 25.7213 68.1123 26.8087 68.1123 29.0673C68.1123 31.326 69.2215 33.2977 72.2671 32.7353C72.2671 32.7353 68.6646 32.7353 68.6646 29.0673C68.6646 25.3993 71.9898 25.3993 71.9898 25.3993Z" fill="black"/>
<path id="Path_51" d="M72.3522 29.5037C72.3522 29.0837 72.6731 28.7453 73.0787 28.7197C72.8381 28.519 72.531 28.4 72.1964 28.4C71.4264 28.4 70.8008 29.0347 70.8008 29.821C70.8008 30.6073 71.4241 31.2397 72.1964 31.2397C72.8495 31.2397 73.3972 30.7823 73.5485 30.164C73.427 30.2457 73.2827 30.2923 73.1268 30.2923C72.7006 30.2923 72.3522 29.94 72.3522 29.5037Z" fill="black"/>
<path id="Path_52" d="M84.6855 29.4873C84.6855 28.9787 85.0751 28.568 85.5655 28.5377C85.2744 28.295 84.9032 28.1503 84.4976 28.1503C83.5648 28.1503 82.8086 28.9203 82.8086 29.87C82.8086 30.8197 83.5648 31.5897 84.4976 31.5897C85.2882 31.5897 85.9505 31.0343 86.1338 30.2877C85.9871 30.3857 85.8107 30.444 85.6228 30.444C85.1048 30.4417 84.6855 30.0147 84.6855 29.4873Z" fill="black"/>
</g>
<path id="Path_53" d="M91.7542 3C91.7542 3 88.7783 9.63035 90.3426 18.5902C90.8409 21.441 91.7542 23.7436 91.7542 23.7436C91.7542 23.7436 91.5753 23.1171 93.2135 22.0541C93.2135 22.0541 91.8782 26.1089 97 27.8543L96.225 29C96.225 29 92.1261 26.0686 92.1667 24.4418L91.7542 25.9142C91.7542 25.9142 91.1604 24.2851 90.3903 22.4256C89.6058 20.5258 89.3339 16.527 89.1098 14.9046C88.8618 13.1189 88.7807 7.38144 91.7542 3Z" fill="black"/>
<path id="Path_54" d="M71 21.5927C71 21.5927 68.7109 22.6193 67.8366 23.6055C67.2337 24.2859 65.6316 25.7416 66.0472 31L65.0071 29.7672C65.0071 29.7672 64.5892 22.7876 70.1473 21L71 21.5927Z" fill="black"/>
<path id="Path_55" opacity="0.64" d="M77 8L85 11.7494L80.7848 13L77 8Z" fill="#B1B0AE"/>
<g id="Group_7">
<path id="Shape_10" fill-rule="evenodd" clip-rule="evenodd" d="M104.441 37.2423C106.533 37.2423 110.905 41.3333 110.905 41.3333C110.846 41.322 110.777 41.3152 110.707 41.3152C109.349 41.3152 101.163 44.9216 100.126 45.5369C100.126 45.5369 102.125 46.9006 103.651 47.2837C103.651 47.2837 102.134 50.0381 99.5232 51.6249C99.5095 51.6339 99.4049 55.2222 100.77 57.4762C95.9454 60.0998 82.7623 67.6078 81.7752 68.586C80.6857 69.6634 76.7826 70.9166 76.7826 70.9166L74.151 69.9339C70.8848 69.1247 64.15 55.22 64.15 55.22C60.0559 51.3882 59.3735 47.7819 59.3735 47.7819L63.9225 47.1057C63.5131 46.4994 59.8284 46.2041 56.8716 47.3311C56.8716 47.3311 57.3265 45.5279 57.7814 44.8517C58.1064 44.3658 58.3268 44.2226 58.3806 44.1876C58.3927 44.1798 58.3963 44.1774 58.3909 44.1778C56.7374 44.2544 55.5068 43.4993 55.5068 43.4993C56.0505 41.6105 58.0861 39.9831 58.0861 39.9831C58.0065 39.9674 57.9178 39.9606 57.8246 39.9606C56.3211 39.9606 53.1846 41.872 53.1846 41.872C54.0011 36.476 59.4463 33.778 59.4463 33.778C58.0861 33.237 57.8132 32.6983 57.8132 32.6983C58.8731 31.2287 60.7541 31.0664 61.5388 31.0664C61.764 31.0664 61.8982 31.08 61.8982 31.08C60.5358 30.2708 60.8087 26.7636 60.8087 26.7636C61.8982 28.9207 65.3009 29.3264 65.3009 29.3264C65.2258 28.3008 64.8915 27.8433 64.8915 27.8433C63.529 25.4157 63.802 15.1624 64.6185 11.1143C65.4351 7.06619 68.1577 2.20889 68.1577 2.20889C71.6968 3.02032 73.8758 11.1143 73.8758 11.1143L70.0637 13.5418L70.0592 20.9619C72.1062 20.0603 82.039 18.9378 82.039 18.9378C82.039 18.9378 85.0345 15.1602 85.8511 11.653C86.6676 8.14359 92.6587 0.0495911 92.6587 0.0495911C92.6587 0.0495911 92.9316 3.01807 93.4752 4.90689C93.6255 5.42909 94.0048 6.42573 94.4864 7.69149C95.747 11.0041 97.7089 16.1601 98.1039 19.4788C98.6497 24.0656 97.5603 27.8433 97.5603 27.8433C100.283 27.5728 102.189 26.4931 102.189 26.4931C102.189 28.1115 100.556 30.2708 100.556 30.2708C104.914 30.2708 107.363 27.5728 107.363 27.5728C107.907 30.5413 105.184 34.0484 105.184 34.0484C105.366 33.9898 105.553 33.9628 105.737 33.9628C107.22 33.9628 108.726 35.6691 108.726 35.6691C108.674 35.651 108.605 35.642 108.526 35.642C107.418 35.642 104.097 37.2874 104.097 37.2874C104.202 37.2558 104.318 37.2423 104.441 37.2423ZM101.568 47.8765C101.568 47.8765 99.0614 46.9344 98.3563 45.1876C98.3563 45.1876 106.472 41.3288 108.514 40.6977C105.464 37.8284 100.563 38.3671 100.563 38.3671C101.029 38.1371 106.506 35.8065 107.593 35.3896C105.546 34.488 102.157 36.192 102.157 36.192L104.329 33.3925C104.786 32.802 105.696 31.3685 106.124 29.8718C104.832 30.6202 102.958 31.3527 100.565 31.3527H98.3859L99.6937 29.6262C99.9326 29.3084 100.233 28.8463 100.494 28.3482C99.7074 28.5893 98.7498 28.8125 97.6763 28.9184L96.0796 29.0762L96.5208 27.548C96.521 27.5473 96.5215 27.5452 96.5225 27.5418C96.5688 27.3706 97.5298 23.8215 97.0303 19.605C96.6527 16.4157 94.7399 11.3916 93.473 8.06696L93.4251 7.94109C92.9426 6.67181 92.5922 5.75003 92.4358 5.20442C92.2379 4.51696 92.0741 3.70553 91.9468 2.93692C89.9975 5.77016 87.3932 9.86112 86.9201 11.8964C86.061 15.5826 83.0513 19.4165 82.9047 19.6032L82.9033 19.605L82.6281 19.9499L82.1891 20.0062C77.5036 20.6171 72.2677 21.3947 71.508 21.6539C71.4052 21.7078 71.3042 21.737 71.1749 21.7743C71.1583 21.7791 71.1412 21.784 71.1236 21.7891C71.1147 21.7916 71.1055 21.7942 71.0962 21.7969C70.9378 21.8416 70.7118 21.9055 70.4413 22.0055L68.9742 22.5419C68.9742 22.5419 68.8741 16.1542 69.1494 13.9724C69.3768 12.1692 72.6043 10.6365 72.6043 10.6365C71.8242 8.11429 70.3094 4.71756 68.6512 3.59508C67.8574 5.13905 66.2607 8.47492 65.6853 11.3217C64.8028 15.6921 64.7436 25.267 65.8263 27.2865C65.9719 27.5187 66.3039 28.1543 66.3836 29.2452L66.4768 30.5503L65.1667 30.3948L65.1618 30.3941C65.0231 30.3759 63.5207 30.1791 62.0802 29.4075C62.1803 29.7907 62.3099 30.0657 62.4532 30.1513L66.6224 32.6307L61.7845 32.1529C61.7845 32.1529 61.689 32.1438 61.5343 32.1438C61.109 32.1438 60.2378 32.2024 59.4941 32.6217C59.5987 32.6713 59.7147 32.7231 59.8466 32.775L62.0984 33.6675L59.9285 34.7427L59.9264 34.7438C59.825 34.7963 56.5671 36.4852 54.9974 39.6879C55.9595 39.2529 57.0194 38.881 57.82 38.881C57.9883 38.881 58.1476 38.8967 58.2954 38.926L59.8898 39.2416C59.8898 39.2416 57.6017 41.5632 57.0945 42.8254C57.2911 42.8969 57.5718 42.9457 57.8958 43.002C58.5837 43.1216 59.4671 43.2753 60.1582 43.7518C60.3538 43.8848 58.6866 45.7556 58.6866 45.7556C58.8833 45.7556 59.1683 45.7151 59.5179 45.6655C61.1898 45.4284 64.3365 44.982 66.3381 47.7503L60.9588 48.6857C61.1904 50.1399 62.8806 52.1258 64.2113 53.6892C64.737 54.3068 65.2065 54.8584 65.5079 55.2853C66.1017 56.1257 66.8736 57.5922 67.7684 59.2924L67.7983 59.3492C68.8764 61.4004 70.1001 63.7264 71.342 65.622C73.0479 68.2276 73.9963 68.7889 74.4103 68.8903L74.4217 68.8925L74.433 68.8948L77.1192 69.6206C78.4862 69.1788 80.4264 68.3944 81.0018 67.8242C81.9071 66.9271 92.3653 60.9 99.2093 57.0434C98.9068 56.3086 98.3518 54.6948 98.279 52.7C95.2531 54.2228 92.8168 53.2205 92.7422 53.1898L92.7406 53.1891C92.7414 53.1893 92.7431 53.1882 92.7465 53.186C92.7876 53.1593 93.0795 52.9695 95.2221 52.8758C98.2631 52.7429 101.215 48.7488 101.568 47.8765Z" fill="black"/>
</g>
<path id="Path_56" d="M78.2429 10.1234C81.2459 10.5938 82 12.8672 82 12.8672C82 12.8672 80.5384 12.306 79.2543 12.1795C77.531 12.0075 75.8942 13.2899 74.8008 12.9388C73.5033 12.5257 73.2438 9.34013 78.2429 10.1234Z" fill="white"/>
<path id="Path_57" d="M78.2591 11.104C80.4165 11.4609 81 12.7225 81 12.7225C81 12.7225 80.0763 12.3557 78.8943 12.231C77.6541 12.1015 76.2825 13.2237 75.4966 12.9596C74.5643 12.6418 74.6677 10.5099 78.2591 11.104Z" fill="black"/>
<path id="Path_58" d="M66 56L75 70L72.6619 68.5443C72.6619 68.5443 71.0052 66.8784 70.735 66.0604C70.4648 65.2424 66.47 57.897 66.47 57.897L66 56Z" fill="black"/>
<path id="Path_59" d="M64 53C64 53 65.8111 55.0563 67.5734 55.2013L70 62L66.679 57.7211L64 53Z" fill="black"/>
<path id="Path_60" d="M65.3924 86C65.3924 86 70.486 91.0764 75 93.6438C75 93.6438 73.8738 98.4427 72.1799 99C72.1799 99 69.3598 99 69.9229 91.741C69.9229 91.741 65.9743 88.67 64 86.9957L65.3924 86Z" fill="black"/>
<path id="Path_61" d="M63.5996 96L70 94.6355V93L62 94.6355L63.5996 96Z" fill="black" stroke="black"/>
<path id="Path_62" d="M66.4109 54.46C66.4109 54.46 68.032 55.1429 70 54C70 54 68.524 56 66.802 56C65.0801 56 66.6667 55.9743 66.6667 55.9743L66.4109 54.46Z" fill="black"/>
<path id="Path_63" d="M120.191 120.924C120.012 120.869 119.78 120.804 119.475 120.728C119.172 120.652 119.041 120.615 118.994 120.599C118.924 120.579 118.779 120.53 118.479 120.424C118.17 120.316 117.93 120.235 117.743 120.18C117.298 120.049 116.84 120.044 116.406 120.155C115.837 119.728 115.162 119.41 114.389 119.203C114.089 119.122 113.565 118.986 112.773 118.795L111.989 118.609C111.677 118.535 111.424 118.475 111.228 118.427L111.052 118.383L110.986 118.662L111.029 118.378L108.672 117.823L108.67 117.828C108.385 117.662 108.123 117.581 107.956 117.544L107.933 117.54C107.728 117.496 107.52 117.48 107.303 117.489C107.245 117.482 107.129 117.463 106.933 117.422C106.91 117.415 106.854 117.397 106.746 117.357C106.416 117.238 106.156 117.159 105.928 117.113C105.106 116.943 104.487 117.162 104.108 117.378C103.478 117.738 103.173 118.284 103.074 118.463L103.065 118.482C102.981 118.634 102.898 118.788 102.81 118.943C102.886 117.629 102.015 116.477 100.719 116.256C100.52 116.224 100.262 116.189 99.935 116.155C99.6211 116.12 99.4766 116.102 99.4111 116.09C99.3615 116.083 99.2305 116.06 98.9234 115.996C98.6163 115.931 98.3769 115.887 98.1895 115.858C98.0111 115.83 97.8327 115.823 97.6588 115.834C97.4917 115.775 97.3201 115.729 97.1394 115.703C96.9565 115.678 96.7149 115.652 96.4033 115.625C96.0984 115.599 95.963 115.583 95.911 115.576C95.8546 115.57 95.71 115.546 95.3826 115.489C95.0619 115.431 94.8135 115.39 94.6193 115.367C94.1497 115.309 93.7003 115.381 93.3028 115.553C92.6796 115.229 91.9728 115.026 91.1892 114.945C90.8844 114.915 90.3492 114.864 89.5385 114.805L88.7414 114.747C88.423 114.724 88.1656 114.705 87.9668 114.689C87.9239 114.685 87.881 114.682 87.8381 114.682C87.6868 114.676 87.5423 114.678 87.4068 114.692L87.4046 114.678C87.3797 114.68 87.3549 114.685 87.3278 114.687C86.8558 114.272 86.3274 114.042 85.7448 114.005C85.2955 113.975 84.4328 114.056 83.6831 114.883L83.6447 114.927C83.5951 114.984 83.5002 115.081 83.3309 115.219C83.3196 115.229 83.306 115.238 83.2902 115.247C82.335 114.489 81.2014 114.079 79.9527 114.049C78.6136 114.017 77.3806 114.431 76.3442 115.254C76.3419 115.252 76.3396 115.249 76.3351 115.247C75.4251 114.574 74.2802 114.249 72.9344 114.284C71.5998 114.316 70.9111 114.341 69.5833 114.404C68.8652 114.436 68.1922 114.772 67.7384 115.323C67.6142 115.475 67.5103 115.641 67.4222 115.816C67.2867 115.708 67.1445 115.606 66.9932 115.512C66.0335 114.913 64.8976 114.664 63.6218 114.777C63.3169 114.805 62.7817 114.855 61.9756 114.947L61.1897 115.04C60.8691 115.076 60.6094 115.106 60.4084 115.129L60.23 115.15L60.2887 115.719L60.1803 115.157L57.7912 115.47L57.798 115.535C57.1702 115.404 56.5176 115.381 55.847 115.477C54.8285 115.623 53.9162 116.017 53.1439 116.629C52.672 116.385 52.1255 116.291 51.5678 116.385C50.4048 116.586 49.7951 116.699 48.6435 116.922C48.6141 116.924 48.5373 116.929 48.3905 116.931C47.9479 116.938 47.607 116.968 47.3179 117.026C46.6879 117.152 46.1437 117.503 45.7666 118.012C44.834 117.726 43.8517 117.694 42.8536 117.929C41.5348 118.24 40.4351 118.959 39.6267 120.023C39.6154 120.019 39.6041 120.014 39.5951 120.01C38.5495 119.592 37.3595 119.572 36.0588 119.945C34.7694 120.316 34.101 120.516 32.8093 120.922C32.1093 121.141 31.5538 121.622 31.2444 122.281C30.9464 122.92 30.9193 123.664 31.1722 124.334L31.188 124.376C31.3731 124.903 31.5109 125.304 31.6012 125.574C32.0483 126.901 32.229 127.486 32.299 127.714C32.3983 128.044 32.5383 128.576 32.719 129.3C32.92 130.101 33.078 130.696 33.2045 131.115C33.55 132.258 34.5458 132.979 35.6501 132.979C35.9052 132.979 36.1672 132.94 36.4291 132.859C36.6075 132.804 36.8446 132.724 37.1969 132.597C37.5379 132.475 37.7027 132.424 37.7705 132.403C38.0347 132.323 38.4366 132.212 38.8996 132.09C39.4573 131.942 39.8751 131.832 40.1528 131.753C41.0177 131.509 41.7516 130.991 42.2935 130.256C42.9845 130.553 43.7026 130.705 44.4365 130.705C44.8611 130.705 45.2901 130.654 45.7192 130.553C46.6495 130.334 47.4715 129.899 48.1602 129.272C48.4831 129.413 48.8354 129.486 49.2035 129.486C49.3841 129.486 49.5693 129.468 49.7545 129.431C50.03 129.376 50.4319 129.302 50.8813 129.224L51.1026 129.184C51.5361 129.108 51.8681 129.051 52.1029 129.007C52.1413 129 52.2994 128.972 52.6923 128.938C53.1372 128.896 53.4443 128.86 53.6791 128.818C54.2301 128.724 54.7111 128.459 55.0747 128.078C55.6302 128.27 56.2105 128.366 56.8044 128.366C57.0664 128.366 57.3328 128.348 57.6015 128.309C58.5387 128.175 59.3877 127.82 60.1239 127.265C60.4965 127.472 60.9142 127.581 61.3455 127.581C61.4426 127.581 61.5397 127.576 61.6391 127.565C61.8039 127.546 62.0072 127.516 62.2962 127.468C62.5469 127.424 62.6462 127.415 62.662 127.413C63.1543 127.362 63.3756 127.364 63.4321 127.366C63.6195 127.383 63.7843 127.383 63.9447 127.366C64.1434 127.348 64.3353 127.307 64.5182 127.244C64.6515 127.254 64.787 127.251 64.9247 127.24C65.0918 127.226 65.3108 127.198 65.6089 127.157C65.8889 127.118 66.0041 127.108 66.0289 127.106C66.0606 127.104 66.1915 127.095 66.4873 127.09C66.8035 127.083 67.0316 127.076 67.2032 127.062C67.7655 127.023 68.269 126.814 68.6665 126.486C69.0661 126.744 69.5404 126.892 70.0507 126.892C70.0913 126.892 70.1343 126.892 70.1749 126.89C70.3601 126.88 70.6085 126.862 70.9788 126.83C71.3266 126.8 71.5004 126.79 71.5704 126.788C71.8437 126.779 72.2547 126.772 72.7266 126.772C73.2686 126.772 73.7089 126.77 74.0115 126.765C74.9012 126.749 75.7322 126.436 76.43 125.867C77.3648 126.59 78.46 126.984 79.6523 127.012C79.6975 127.012 79.7427 127.014 79.7901 127.014C81.3595 127.014 82.7844 126.369 83.9157 125.145C84.1528 124.887 84.3674 124.618 84.557 124.337C84.5074 125.044 84.7241 125.721 85.1667 126.249C85.6116 126.777 86.2416 127.099 86.9281 127.15C87.0907 127.164 87.2939 127.171 87.592 127.178C87.8472 127.182 87.9465 127.191 87.9623 127.191C88.4636 127.235 88.6759 127.279 88.7278 127.29C88.8611 127.327 89.0327 127.369 89.2246 127.387C89.4256 127.408 89.6243 127.403 89.8163 127.376C89.9472 127.41 90.0805 127.433 90.2182 127.449C90.3853 127.466 90.6021 127.482 90.907 127.496C91.1824 127.509 91.3021 127.521 91.3292 127.523C91.3608 127.528 91.4918 127.542 91.7809 127.592C92.088 127.645 92.3138 127.68 92.4944 127.701C92.6006 127.714 92.7067 127.719 92.8106 127.719C92.8196 127.719 92.8286 127.719 92.8377 127.717C92.9438 127.744 93.0522 127.767 93.1651 127.781C93.3345 127.802 93.5512 127.823 93.8471 127.843C94.1271 127.864 94.24 127.878 94.2716 127.883C94.3009 127.887 94.4206 127.903 94.7074 127.961C95.0303 128.025 95.2516 128.065 95.421 128.09C95.5429 128.108 95.6649 128.115 95.7868 128.115C95.8568 128.115 95.9291 128.111 95.9991 128.106C96.1662 128.171 96.3423 128.219 96.5252 128.247C96.751 128.281 97.0672 128.323 97.5798 128.387C98.0924 128.452 98.3656 128.493 98.483 128.514C98.7089 128.551 99.1356 128.638 99.8921 128.841C100.195 128.922 100.384 128.972 100.454 128.993C100.335 128.959 100.22 128.913 100.109 128.862C100.59 129.051 101.073 129.198 101.532 129.263L102.313 129.35L103.022 129.479L103.033 129.431H103.038L103.054 129.385C103.221 129.426 103.358 129.459 103.476 129.484C103.776 129.546 104.104 129.548 104.433 129.486C104.7 129.671 105.005 129.807 105.339 129.88C105.508 129.917 105.729 129.959 106.034 130.009C106.317 130.058 106.438 130.083 106.477 130.092C106.508 130.099 106.635 130.129 106.922 130.214C107.227 130.304 107.446 130.364 107.613 130.403C107.737 130.433 107.857 130.454 107.972 130.465C108.073 130.502 108.175 130.537 108.283 130.565C108.441 130.604 108.642 130.645 108.936 130.698C109.187 130.744 109.286 130.767 109.302 130.772C109.794 130.896 110.002 130.975 110.052 130.995C110.178 131.055 110.343 131.122 110.542 131.175C110.731 131.224 110.923 131.251 111.115 131.256C111.239 131.311 111.37 131.357 111.506 131.394C111.668 131.438 111.883 131.489 112.181 131.553C112.459 131.613 112.572 131.643 112.603 131.652C112.633 131.661 112.752 131.696 113.039 131.793C113.337 131.896 113.556 131.965 113.728 132.016C113.843 132.048 113.956 132.074 114.069 132.09C114.17 132.134 114.274 132.175 114.383 132.207C114.545 132.256 114.76 132.311 115.053 132.38C115.333 132.447 115.442 132.479 115.469 132.486C115.498 132.495 115.618 132.532 115.896 132.636C116.207 132.753 116.42 132.827 116.584 132.88C116.842 132.961 117.101 133 117.354 133C118.452 133 119.445 132.277 119.793 131.129V131.127C119.929 130.677 120.114 130.007 120.342 129.136C120.561 128.304 120.73 127.689 120.843 127.311C120.911 127.09 121.049 126.657 121.329 125.85C121.586 125.111 121.767 124.567 121.88 124.189C122.306 122.786 121.564 121.355 120.191 120.924Z" fill="black"/>
<g id="Group_8">
<path id="Shape_11" fill-rule="evenodd" clip-rule="evenodd" d="M39.5208 126.026C39.673 126.604 39.6298 127.157 39.3981 127.685C39.1596 128.232 38.7916 128.571 38.2919 128.708C38.0193 128.783 37.6127 128.889 37.0698 129.027C36.5269 129.167 36.1226 129.277 35.8545 129.356C35.7001 129.402 35.4707 129.476 35.1663 129.582C34.8619 129.688 34.6347 129.765 34.4825 129.81C34.3849 129.84 34.3213 129.806 34.2894 129.709C34.1759 129.343 34.0237 128.787 33.8329 128.045C33.6421 127.299 33.4921 126.746 33.3786 126.38C33.2604 125.999 33.0197 125.272 32.6517 124.206C32.5563 123.93 32.4109 123.522 32.2155 122.977C32.208 122.959 32.2034 122.947 32.1979 122.933L32.1883 122.907C32.1587 122.833 32.186 122.781 32.27 122.756C33.5535 122.365 34.1963 122.176 35.4866 121.815C36.277 121.593 36.9494 121.591 37.4923 121.801C37.7513 121.903 37.9852 122.088 38.1942 122.356C38.3919 122.609 38.5304 122.885 38.6076 123.185C38.6713 123.422 38.6531 123.725 38.5577 124.091C38.4623 124.456 38.41 124.621 38.4009 124.585C38.4078 124.612 38.46 124.648 38.5531 124.691C39.0233 124.91 39.3436 125.355 39.5208 126.026ZM36.0999 123.942C36.0249 123.677 35.7455 123.614 35.2617 123.752C35.1526 123.784 35.0958 123.829 35.089 123.89C35.0868 123.917 35.1072 124.005 35.1526 124.156C35.1958 124.305 35.2276 124.393 35.2503 124.425C35.2957 124.475 35.3752 124.481 35.4934 124.45C35.9568 124.314 36.1589 124.147 36.0999 123.942ZM36.0454 126.313C36.5973 126.155 36.9154 126.215 36.9926 126.493C37.038 126.656 36.9631 126.787 36.7654 126.888C36.695 126.925 36.5337 126.976 36.2861 127.046C36.1544 127.085 36.0635 127.08 36.0181 127.035C35.9954 127.01 35.959 126.913 35.9091 126.744C35.8591 126.572 35.8364 126.475 35.8386 126.453C35.85 126.396 35.9181 126.349 36.0454 126.313Z" fill="white"/>
<path id="Shape_12" fill-rule="evenodd" clip-rule="evenodd" d="M46.1174 125.863C46.6148 124.978 46.7625 124.007 46.5421 122.948C46.3218 121.885 45.7971 121.045 44.9566 120.442C44.1116 119.836 43.1916 119.642 42.2149 119.868C41.2335 120.094 40.4908 120.67 39.9978 121.582C39.5049 122.494 39.4027 123.479 39.6753 124.529C39.9479 125.574 40.5089 126.383 41.3494 126.961C42.1876 127.539 43.0621 127.722 43.9912 127.507C44.9157 127.293 45.6199 126.748 46.1174 125.863ZM43.6618 122.668C43.9231 122.86 44.0889 123.122 44.1638 123.454C44.2365 123.784 44.1979 124.088 44.0457 124.368C43.8958 124.648 43.6732 124.822 43.3802 124.89C43.0894 124.955 42.8145 124.897 42.551 124.709C42.2875 124.524 42.1149 124.269 42.0377 123.944C41.9582 123.61 41.9922 123.3 42.1399 123.016C42.2875 122.731 42.517 122.553 42.8214 122.483C43.1212 122.415 43.4006 122.476 43.6618 122.668Z" fill="white"/>
<path id="Path_64" d="M52.0235 123.409C52.0553 123.592 52.0984 123.969 52.1575 124.535C52.2188 125.129 52.2484 125.497 52.2461 125.637C52.2438 125.719 52.212 125.766 52.1484 125.777C51.969 125.807 51.6987 125.838 51.3375 125.87C50.9763 125.902 50.706 125.935 50.5265 125.967C50.2608 126.015 49.8587 126.082 49.3249 126.173C48.7911 126.263 48.389 126.337 48.1233 126.389C47.9892 126.416 47.9075 126.389 47.887 126.313C47.8211 126.075 47.7303 125.662 47.5463 125.215C47.435 124.946 47.3441 124.782 47.3373 124.748C47.3328 124.721 47.5145 124.152 47.9075 123.045C48.3004 121.939 48.4935 121.318 48.4663 121.178C48.4526 121.108 48.4049 121.083 48.3231 121.096C47.7303 121.209 47.4327 121.266 46.8421 121.385C46.7581 121.401 46.7058 121.365 46.6876 121.273C46.6627 121.153 46.649 120.988 46.6467 120.78C46.6445 120.516 46.6422 120.349 46.6399 120.281C46.5831 119.608 46.5445 119.225 46.5264 119.127C46.5127 119.055 46.5468 119.01 46.6286 118.994C46.7649 118.967 46.9784 118.951 47.2646 118.947C47.5508 118.942 47.7643 118.929 47.9052 118.902C49.075 118.68 49.6611 118.574 50.8355 118.378C50.9127 118.364 50.9672 118.407 50.999 118.504C51.1444 118.922 51.2716 119.441 51.3761 120.065C51.3943 120.168 51.3738 120.286 51.3148 120.417C51.1353 120.816 50.9059 121.376 50.6265 122.09C50.2562 123.034 50.0836 123.553 50.0995 123.644C50.1063 123.677 50.1358 123.691 50.1926 123.68C50.5493 123.616 50.8241 123.56 51.0127 123.513C51.1921 123.467 51.4556 123.388 51.8009 123.275C51.8667 123.251 51.9076 123.237 51.9213 123.235C51.969 123.233 52.003 123.289 52.0235 123.409Z" fill="white"/>
<path id="Shape_13" fill-rule="evenodd" clip-rule="evenodd" d="M58.413 123.82C58.9832 122.98 59.2171 122.027 59.0922 120.952C58.9673 119.873 58.5198 118.992 57.7338 118.315C56.9501 117.637 56.0552 117.364 55.0648 117.502C54.0721 117.639 53.2839 118.147 52.716 119.012C52.1458 119.877 51.9596 120.848 52.1368 121.918C52.3139 122.986 52.8023 123.84 53.5837 124.49C54.3651 125.141 55.217 125.398 56.1574 125.267C57.0955 125.138 57.8406 124.657 58.413 123.82ZM56.2573 120.417C56.4981 120.631 56.6412 120.909 56.6866 121.245C56.7321 121.58 56.6662 121.88 56.4913 122.144C56.3187 122.411 56.0824 122.564 55.7848 122.605C55.4895 122.645 55.2215 122.562 54.9762 122.352C54.7331 122.142 54.5855 121.873 54.5355 121.544C54.4855 121.205 54.5446 120.898 54.7172 120.629C54.8899 120.358 55.1306 120.202 55.4396 120.159C55.7417 120.116 56.0143 120.202 56.2573 120.417Z" fill="white"/>
<path id="Shape_14" fill-rule="evenodd" clip-rule="evenodd" d="M65.9873 124.023C66.0713 124.018 66.1099 123.996 66.1077 123.957C66.1054 123.919 65.8873 123.472 65.4307 122.607C64.9832 121.754 64.7516 121.306 64.7493 121.264C64.7447 121.209 64.7788 121.148 64.8492 121.083C65.1786 120.776 65.4012 120.466 65.5125 120.148C65.6261 119.83 65.6647 119.419 65.6306 118.915C65.5784 118.138 65.2536 117.558 64.6561 117.195C64.1451 116.883 63.5045 116.759 62.7503 116.824C62.396 116.856 61.8644 116.908 61.158 116.987C60.8278 117.024 60.5364 117.057 60.2839 117.085C59.996 117.118 59.7588 117.145 59.5724 117.165C59.443 117.179 59.3816 117.185 59.3884 117.185C59.3226 117.204 59.2976 117.246 59.3112 117.316C59.318 117.346 59.3203 117.359 59.3248 117.389C59.5611 118.698 59.7337 119.852 59.8428 120.85C59.8859 121.241 59.9313 121.83 59.9813 122.618C60.0313 123.406 60.079 123.996 60.1222 124.386C60.1335 124.488 60.1903 124.533 60.2902 124.522C60.4061 124.508 60.581 124.484 60.8127 124.445C61.0444 124.407 61.2193 124.382 61.3352 124.371C61.869 124.316 62.2665 124.301 62.5345 124.319C62.589 124.323 62.6299 124.325 62.6504 124.323C62.7094 124.319 62.7367 124.276 62.7299 124.195C62.7094 123.971 62.6572 123.623 62.5709 123.151C62.4868 122.679 62.4323 122.325 62.4096 122.088C62.3982 121.973 62.4073 121.914 62.4346 121.912C62.4732 121.909 62.5209 121.979 62.5777 122.126C62.8207 122.693 63.0093 123.117 63.1319 123.393C63.2021 123.552 63.2629 123.693 63.3147 123.812C63.3619 123.921 63.4016 124.013 63.4341 124.086C63.4749 124.17 63.5476 124.208 63.6521 124.199C63.7771 124.188 63.9656 124.165 64.2177 124.131C64.4699 124.097 64.6584 124.075 64.7879 124.066C64.9196 124.057 65.1195 124.048 65.3853 124.043C65.6511 124.039 65.8532 124.032 65.9873 124.023ZM62.2642 118.974C62.7912 118.926 63.0729 119.103 63.107 119.498C63.141 119.906 62.9048 120.132 62.3937 120.177C62.2665 120.189 62.1983 120.168 62.1938 120.116C62.1893 120.065 62.1779 119.985 62.162 119.882C62.1461 119.778 62.1347 119.699 62.1302 119.647C62.0893 119.211 62.1347 118.985 62.2642 118.974Z" fill="white"/>
<path id="Shape_15" fill-rule="evenodd" clip-rule="evenodd" d="M74.803 121.428C74.8052 122.025 74.6281 122.551 74.2737 123.007C73.908 123.476 73.4719 123.716 72.9585 123.725C72.6791 123.729 72.2611 123.732 71.7069 123.732C71.1503 123.732 70.7346 123.741 70.4598 123.75C70.3008 123.756 70.0623 123.772 69.742 123.799C69.424 123.826 69.1855 123.845 69.031 123.851C68.9288 123.856 68.8765 123.808 68.872 123.707C68.8538 123.325 68.8447 122.749 68.8447 121.982C68.8447 121.214 68.8379 120.638 68.8197 120.256C68.8016 119.857 68.7493 119.094 68.6607 117.971C68.638 117.68 68.5994 117.249 68.5472 116.675C68.545 116.648 68.5429 116.634 68.539 116.609L68.5381 116.603C68.5267 116.522 68.5653 116.481 68.6539 116.476C69.9805 116.415 70.6438 116.393 71.9726 116.361C72.7858 116.341 73.431 116.506 73.9012 116.845C74.1261 117.007 74.3032 117.244 74.4373 117.556C74.5645 117.849 74.6281 118.152 74.6303 118.461C74.6326 118.707 74.5395 118.996 74.3578 119.326C74.176 119.656 74.0852 119.805 74.0852 119.766C74.0852 119.796 74.1261 119.841 74.2056 119.906C74.6008 120.227 74.8007 120.737 74.803 121.428ZM72.034 118.567C72.0272 118.294 71.775 118.161 71.2775 118.177C71.1662 118.179 71.1004 118.211 71.0799 118.267C71.0708 118.292 71.0686 118.382 71.0731 118.54C71.0777 118.694 71.0867 118.789 71.1004 118.825C71.1299 118.884 71.2071 118.911 71.3275 118.908C71.8045 118.893 72.0408 118.782 72.034 118.567ZM71.3934 120.85C71.9636 120.832 72.252 120.972 72.2589 121.259C72.2634 121.428 72.1566 121.537 71.9431 121.589C71.8659 121.605 71.6978 121.616 71.4434 121.623C71.3071 121.627 71.2208 121.6 71.189 121.546C71.1731 121.514 71.1617 121.413 71.1572 121.236C71.1503 121.058 71.1526 120.956 71.1617 120.936C71.1844 120.882 71.2616 120.855 71.3934 120.85Z" fill="white"/>
<path id="Shape_16" fill-rule="evenodd" clip-rule="evenodd" d="M81.19 122.898C81.8874 122.162 82.2712 121.257 82.3235 120.177C82.3757 119.094 82.0782 118.152 81.4149 117.359C80.7516 116.565 79.9134 116.151 78.9162 116.129C77.9167 116.106 77.0581 116.479 76.3584 117.242C75.6588 118.005 75.3181 118.933 75.3203 120.017C75.3203 121.096 75.6633 122.018 76.3266 122.785C76.9899 123.553 77.7872 123.944 78.7345 123.966C79.6771 123.989 80.4904 123.635 81.19 122.898ZM79.6181 119.197C79.8203 119.446 79.9179 119.742 79.9066 120.083C79.8952 120.421 79.7816 120.706 79.5681 120.941C79.3546 121.175 79.0979 121.288 78.7981 121.282C78.5028 121.275 78.2506 121.148 78.0439 120.902C77.8349 120.656 77.735 120.367 77.7395 120.033C77.7441 119.69 77.8531 119.398 78.0666 119.159C78.2802 118.92 78.5437 118.805 78.8549 118.811C79.1592 118.818 79.4137 118.947 79.6181 119.197Z" fill="white"/>
<path id="Path_65" d="M85.629 118.086C85.5903 118.644 85.4268 119.136 85.1451 119.568C85.0111 119.773 84.8407 120.006 84.634 120.268C84.3433 120.629 84.1525 120.807 84.0616 120.803C84.0139 120.801 83.9685 120.765 83.9208 120.695C83.8254 120.555 83.6232 120.338 83.3097 120.044C83.2643 120.004 83.2438 119.967 83.2438 119.936C83.2438 119.925 83.2915 119.866 83.3869 119.76C83.4983 119.633 83.5868 119.502 83.6504 119.369C83.7504 119.17 83.8072 118.956 83.8208 118.725C83.8322 118.54 83.705 118.29 83.4415 117.974C83.1757 117.66 83.0439 117.49 83.0439 117.465C83.0462 117.427 83.0712 117.38 83.1189 117.328C83.1916 117.244 83.3097 117.147 83.4733 117.041C83.6913 116.896 83.8163 116.808 83.8503 116.781C84.1138 116.576 84.3365 116.373 84.5136 116.172C84.5681 116.111 84.6159 116.084 84.6499 116.086C84.6908 116.088 84.7499 116.124 84.8226 116.192C85.4154 116.729 85.6812 117.364 85.629 118.086Z" fill="white"/>
<path id="Shape_17" fill-rule="evenodd" clip-rule="evenodd" d="M91.8802 124.657C91.962 124.666 92.0052 124.653 92.0097 124.615C92.0142 124.576 91.8802 124.095 91.6054 123.174C91.3237 122.253 91.1806 121.772 91.1851 121.729C91.1919 121.672 91.2351 121.62 91.3169 121.568C91.6985 121.327 91.9734 121.063 92.1437 120.771C92.3118 120.48 92.4277 120.083 92.4867 119.581C92.5776 118.807 92.3663 118.179 91.8461 117.712C91.4009 117.312 90.7944 117.073 90.0403 116.998C89.6859 116.962 89.1521 116.917 88.4434 116.865C88.1287 116.842 87.8496 116.822 87.6057 116.805C87.2985 116.783 87.0473 116.765 86.851 116.75C86.7216 116.741 86.6602 116.736 86.667 116.736C86.5966 116.741 86.5625 116.779 86.5648 116.849V116.924C86.5557 118.251 86.5103 119.419 86.4331 120.419C86.4035 120.812 86.3399 121.399 86.2423 122.183C86.1446 122.966 86.081 123.553 86.0514 123.946C86.0446 124.045 86.0901 124.102 86.1923 124.109C86.3081 124.118 86.483 124.125 86.7193 124.129C86.9532 124.134 87.1304 124.143 87.2463 124.152C87.7801 124.195 88.1753 124.253 88.4343 124.319C88.4888 124.335 88.5274 124.344 88.5479 124.346C88.6092 124.35 88.6433 124.314 88.6501 124.233C88.6705 124.009 88.6842 123.657 88.6864 123.178C88.691 122.7 88.7023 122.341 88.725 122.104C88.7364 121.988 88.7569 121.932 88.7841 121.934C88.8205 121.939 88.8545 122.018 88.8841 122.171C88.9928 122.659 89.0836 123.048 89.1504 123.334C89.1659 123.401 89.1801 123.462 89.193 123.517C89.2313 123.682 89.2643 123.828 89.2925 123.953C89.3195 124.073 89.3422 124.174 89.3611 124.253C89.3861 124.344 89.4497 124.393 89.5542 124.405C89.6791 124.416 89.8676 124.429 90.122 124.441C90.3742 124.454 90.5673 124.468 90.6945 124.481C90.8262 124.495 91.0216 124.524 91.2851 124.567C91.5486 124.612 91.7462 124.642 91.8802 124.657ZM89.1498 119.012C89.6768 119.062 89.9199 119.285 89.8813 119.681C89.8404 120.089 89.5655 120.268 89.0522 120.22C88.9227 120.207 88.8613 120.175 88.8659 120.123C88.8715 120.08 88.8741 120.018 88.8774 119.938C88.878 119.922 88.8787 119.904 88.8795 119.886C88.8841 119.78 88.8886 119.701 88.8931 119.649C88.934 119.213 89.0203 119.001 89.1498 119.012Z" fill="white"/>
<path id="Path_66" d="M95.0372 124.908C95.0213 125.012 94.9713 125.059 94.8827 125.046C94.751 125.028 94.5556 124.992 94.2944 124.942C94.0332 124.89 93.8355 124.856 93.7015 124.84C93.5766 124.825 93.3881 124.806 93.1336 124.788C92.8792 124.77 92.6907 124.755 92.5658 124.739C92.4658 124.727 92.4204 124.669 92.434 124.569C92.4863 124.145 92.5794 123.506 92.7157 122.652C92.852 121.799 92.9474 121.157 92.9996 120.728C93.0428 120.369 93.095 119.83 93.1518 119.109C93.2086 118.389 93.2586 117.854 93.3017 117.502C93.3108 117.425 93.354 117.391 93.4312 117.4C93.572 117.418 93.7856 117.45 94.0672 117.499C94.3489 117.549 94.5624 117.583 94.7078 117.603C94.8418 117.621 95.0463 117.642 95.3166 117.662C95.5892 117.685 95.7891 117.705 95.9208 117.723C96.0049 117.734 96.0412 117.782 96.0276 117.865C95.9776 118.22 95.8867 118.75 95.7573 119.457C95.6278 120.164 95.5369 120.695 95.487 121.049C95.4256 121.476 95.3529 122.119 95.2621 122.98C95.1712 123.842 95.0963 124.486 95.0372 124.908Z" fill="white"/>
<path id="Path_67" d="M101.046 123.623C100.917 124.332 100.723 125.073 100.474 125.847C100.433 125.969 100.374 126.021 100.299 126.008C100.346 126.017 100.131 125.958 99.6536 125.836C98.9744 125.66 98.4247 125.536 98.0113 125.47C97.7886 125.434 97.4547 125.389 97.0095 125.333C96.5643 125.278 96.2281 125.235 96.0078 125.202C95.9123 125.188 95.8715 125.114 95.8828 124.976C95.8737 125.073 95.8964 124.953 95.9464 124.612C96.1213 123.413 96.2099 122.815 96.3848 121.616C96.4416 121.236 96.5143 120.627 96.6052 119.791C96.6938 118.985 96.7687 118.378 96.8301 117.971C96.8414 117.895 96.8846 117.863 96.9618 117.874C97.0958 117.895 97.298 117.931 97.566 117.985C97.8341 118.039 98.0362 118.077 98.1703 118.098C98.3134 118.12 98.5292 118.145 98.8177 118.175C99.1039 118.204 99.3197 118.231 99.465 118.256C99.5173 118.265 99.5355 118.305 99.5241 118.378C99.5173 118.4 99.515 118.412 99.5105 118.434C99.3719 119.012 99.1607 119.897 98.9358 121.051C98.8495 121.494 98.7927 121.855 98.7495 122.115C98.7018 122.406 98.6496 122.749 98.5996 123.135C98.5837 123.271 98.5996 123.343 98.645 123.35C98.9721 123.404 99.3333 123.443 99.724 123.467C100.169 123.495 100.567 123.495 100.917 123.47C100.946 123.467 100.969 123.467 100.987 123.472C101.041 123.483 101.062 123.533 101.046 123.623Z" fill="white"/>
<path id="Shape_18" fill-rule="evenodd" clip-rule="evenodd" d="M107.359 127.351C107.479 127.381 107.545 127.369 107.556 127.322C107.561 127.308 107.561 127.286 107.559 127.256C107.516 126.775 107.477 126.042 107.431 125.059C107.386 124.075 107.336 123.339 107.284 122.849C107.154 121.903 107.043 121.191 106.961 120.722C106.857 120.114 106.795 119.775 106.775 119.717C106.727 119.584 106.677 119.511 106.623 119.5C106.607 119.495 106.577 119.498 106.537 119.502C106.348 119.511 106.03 119.468 105.582 119.376C105.471 119.353 105.31 119.304 105.099 119.229C104.887 119.152 104.726 119.105 104.615 119.082C104.538 119.066 104.485 119.066 104.46 119.08C104.433 119.094 104.397 119.141 104.351 119.222C103.998 119.853 103.608 120.498 103.216 121.148C102.247 122.752 101.264 124.38 100.787 125.856C100.765 125.929 100.808 125.994 100.896 126.01C101.019 126.033 101.203 126.06 101.453 126.091C101.703 126.123 101.889 126.152 102.009 126.175C102.134 126.197 102.318 126.24 102.564 126.304C102.809 126.367 102.993 126.41 103.118 126.435C103.191 126.448 103.254 126.383 103.309 126.236C103.37 126.069 103.468 125.976 103.597 125.958C103.729 125.94 104.147 126.003 104.853 126.152C104.967 126.175 105.01 126.256 104.98 126.394C104.944 126.565 104.926 126.651 104.926 126.647C104.915 126.751 104.949 126.814 105.028 126.83C105.158 126.857 105.353 126.891 105.612 126.934C105.871 126.976 106.066 127.013 106.196 127.042C106.325 127.071 106.518 127.123 106.777 127.195C107.036 127.27 107.229 127.322 107.359 127.351ZM104.985 122.564C105.221 122.804 105.308 123.059 105.251 123.33C105.226 123.452 105.162 123.549 105.062 123.623C104.962 123.698 104.858 123.723 104.747 123.7C104.637 123.677 104.553 123.612 104.49 123.504C104.426 123.395 104.408 123.28 104.433 123.16C104.483 122.925 104.665 122.727 104.985 122.564Z" fill="white"/>
<path id="Shape_19" fill-rule="evenodd" clip-rule="evenodd" d="M113.617 128.959C113.696 128.982 113.742 128.973 113.753 128.936C113.764 128.898 113.708 128.404 113.574 127.448C113.439 126.493 113.371 125.994 113.383 125.954C113.399 125.899 113.451 125.854 113.539 125.816C113.955 125.637 114.273 125.421 114.487 125.159C114.7 124.899 114.877 124.524 115.016 124.039C115.229 123.289 115.118 122.634 114.673 122.09C114.291 121.625 113.728 121.291 112.99 121.099C112.642 121.008 112.122 120.877 111.425 120.715C110.989 120.612 110.623 120.527 110.325 120.457C110.146 120.416 109.992 120.38 109.862 120.349C109.789 120.332 109.738 120.319 109.709 120.312C109.689 120.307 109.68 120.305 109.682 120.306C109.614 120.302 109.573 120.333 109.564 120.403L109.553 120.475C109.333 121.787 109.103 122.932 108.869 123.908C108.778 124.292 108.622 124.861 108.401 125.619C108.181 126.378 108.024 126.949 107.933 127.331C107.911 127.428 107.947 127.491 108.047 127.514C108.16 127.541 108.333 127.577 108.567 127.618C108.799 127.661 108.974 127.697 109.087 127.724C109.61 127.853 109.994 127.972 110.241 128.078L110.245 128.08C110.295 128.102 110.33 128.117 110.35 128.121C110.409 128.137 110.45 128.105 110.471 128.026C110.527 127.807 110.596 127.462 110.675 126.99C110.752 126.516 110.823 126.164 110.882 125.933C110.911 125.82 110.939 125.768 110.966 125.775C111.002 125.786 111.023 125.868 111.027 126.026C111.066 126.642 111.1 127.105 111.123 127.405C111.136 127.58 111.146 127.733 111.154 127.863C111.162 127.981 111.168 128.08 111.175 128.16C111.186 128.255 111.241 128.313 111.343 128.34C111.466 128.372 111.652 128.415 111.902 128.467C112.152 128.521 112.34 128.564 112.465 128.598C112.594 128.632 112.785 128.69 113.04 128.776C113.292 128.862 113.485 128.923 113.617 128.959ZM111.795 122.948C112.311 123.081 112.517 123.341 112.415 123.725C112.311 124.122 112.008 124.253 111.509 124.127C111.381 124.095 111.325 124.055 111.338 124.003C111.352 123.951 111.368 123.874 111.388 123.77C111.409 123.666 111.425 123.589 111.438 123.537C111.55 123.113 111.668 122.916 111.795 122.948Z" fill="white"/>
<path id="Path_68" d="M116.719 129.709C116.687 129.81 116.631 129.846 116.544 129.819C116.417 129.781 116.226 129.715 115.974 129.623C115.722 129.53 115.531 129.465 115.399 129.426C115.277 129.39 115.093 129.343 114.843 129.284C114.593 129.225 114.407 129.18 114.286 129.144C114.189 129.117 114.152 129.054 114.182 128.955C114.3 128.544 114.495 127.927 114.766 127.105C115.036 126.283 115.231 125.667 115.352 125.251C115.452 124.904 115.588 124.38 115.761 123.677C115.931 122.975 116.065 122.454 116.165 122.113C116.185 122.038 116.235 122.011 116.31 122.034C116.449 122.072 116.653 122.14 116.928 122.235C117.201 122.329 117.407 122.397 117.548 122.438C117.68 122.476 117.878 122.528 118.146 122.594C118.411 122.659 118.609 122.711 118.739 122.752C118.82 122.776 118.848 122.828 118.823 122.91C118.716 123.253 118.543 123.761 118.3 124.438C118.059 125.116 117.884 125.626 117.78 125.967C117.653 126.38 117.478 127.004 117.251 127.839C117.024 128.679 116.846 129.3 116.719 129.709Z" fill="white"/>
</g>
<path id="Path_69" d="M73.0013 55.0815C73.0835 55.4383 73.3124 55.7291 73.568 55.9581C73.8324 56.185 74.128 56.3722 74.4525 56.5022C75.0881 56.7885 75.7903 56.9273 76.4926 57.022C76.666 57.0506 76.8437 57.0661 77.0238 57.0771C77.2015 57.0903 77.3771 57.1145 77.5549 57.1233C77.9127 57.1365 78.2683 57.163 78.6216 57.152C79.3328 57.1564 80.0373 57.1035 80.7285 56.989C81.4218 56.8876 82.0952 56.6938 82.7353 56.4383C82.893 56.3678 83.0597 56.3172 83.2108 56.2335L83.6687 55.9934C83.8176 55.9075 83.9553 55.8039 84.102 55.7136C84.2531 55.6277 84.3865 55.5176 84.5198 55.4097C84.8043 55.207 85.0354 54.9493 85.291 54.7092C85.4088 54.5793 85.5177 54.4427 85.6332 54.3084C85.6888 54.2401 85.751 54.1762 85.8021 54.1035L85.951 53.8855C86.3844 53.3172 86.6778 52.6608 87 52C86.8689 52.7159 86.6755 53.4405 86.3266 54.1057L86.2022 54.359C86.1577 54.4427 86.1022 54.5176 86.0533 54.5991C85.951 54.7577 85.851 54.9185 85.7444 55.0749C85.5066 55.37 85.2688 55.6718 84.9799 55.9251C84.4309 56.4625 83.7709 56.8876 83.0708 57.2048C82.3708 57.5242 81.6263 57.7467 80.8707 57.859L80.5884 57.9053L80.304 57.9339C80.1151 57.9493 79.9262 57.9757 79.7351 57.9846C79.3572 57.9934 78.9772 58.0132 78.6016 57.9868C77.8483 57.9515 77.1015 57.8678 76.3637 57.6982C75.6281 57.5374 74.8947 57.2929 74.2413 56.8832C73.9169 56.6806 73.6169 56.4251 73.3835 56.1233C73.1568 55.8194 72.9835 55.4537 73.0013 55.0815Z" fill="#080240"/>
<path id="Path_70" d="M104 58.1268L101.093 64.662H93.7128L94.3837 67.3662L86.5565 73L85 72.7746L93.4892 67.1408L92.371 63.3099H100.645L102.882 57L104 58.1268Z" fill="url(#paint4_linear_0_477)"/>
<path id="Path_71" d="M116.429 65.1116C115.889 63.4957 102.884 55 102.884 55L100.086 55.1013L102.206 56.1253C102.367 56.3211 111.089 62.8363 112.449 63.7433C114.346 65.0058 114.816 65.5595 114.913 65.6945C115.573 67.7447 116.816 75.0117 116.242 76.7266C115.349 79.3957 111.667 87.5674 110.582 88.8659C110.112 89.4263 106.93 92.0504 102.767 94.8613C98.1021 98.0098 94.2666 99.9903 92.2415 100.292C91.846 100.35 91.3623 100.382 90.8018 100.382C86.4895 100.382 79.1712 98.6602 75.4646 97.7127C76.7642 95.4892 78.2061 91.463 77.3134 85.2291C76.4297 79.0739 75.4375 74.8541 74.834 72.5991C80.1837 74.4265 95.7515 74.9532 97.3517 75.2187C98.9745 75.4888 106.55 78.7206 106.55 78.7206C106.55 78.7206 101.951 74.6786 100.868 74.1407C100.611 74.0124 99.6954 73.8999 98.4049 73.7941C101.083 72.1018 108.713 71.1768 108.713 71.1768C100.785 70.0223 96.8658 71.8542 95.2746 72.9952C97.8128 70.6389 105.337 64.423 113.042 65.519C113.042 65.519 103.572 62.285 91.9726 73.4026C88.6208 73.2203 85.2735 73.0335 83.8203 72.7927C80.6651 72.2683 74.4498 70.2698 74.0972 70.1573L74.0588 70.0448L73.4757 69.7432C66.6998 66.2346 66.2116 66.0658 65.7596 66.0591C65.7121 66.0523 65.6443 66.0433 65.5652 66.0321C65.0499 65.9623 63.9786 65.8183 62.7853 65.8183C61.8089 65.8183 60.9229 65.9151 60.1567 66.1063C57.9486 66.6555 54.0476 70.3216 51.688 72.8804C50.9128 72.3561 49.672 71.3636 48.6459 69.831C48.6459 69.831 49.0143 72.0297 50.2076 73.5578C49.3036 73.317 47.8774 73.263 45.6693 73.8729C45.6693 73.8729 48.23 73.6614 49.9409 74.9374L49.8031 75.122C49.1431 74.9149 48.0017 74.7754 46.2117 75.221C39.7184 76.8369 38.0956 83.5727 38.0956 83.5727C39.9896 78.9929 45.1314 77.377 46.7541 77.1069C48.2029 76.8661 50.5127 77.485 50.9919 77.62C52.1649 78.5495 54.5177 79.9313 58.1475 79.9313C58.4933 79.9313 58.8458 79.9178 59.2029 79.8931C59.5442 80.3994 59.9985 81.0566 60.5138 81.779C60.7737 82.2809 61.1986 82.812 61.5851 83.2396C62.6406 84.6394 63.8136 86.0775 64.8397 87.0452C64.2182 88.7151 63.122 91.9334 62.8056 94.607C59.2029 95.2664 48.6527 97.1546 43.6374 97.589C42.8012 97.661 41.9943 97.697 41.2439 97.697C37.7792 97.697 35.336 96.9476 33.9844 95.469C32.8995 94.2829 32.4588 92.505 32.6781 90.1892C33.0216 86.5344 34.4884 83.0393 36.9181 80.0821C39.0471 77.4895 41.9062 75.3335 44.9664 74.0079L45.5405 73.7581L45.7981 73.191C46.4174 71.8294 48.5645 68.0013 51.0416 66.6757C52.0587 66.1311 52.9966 65.5505 53.9052 64.9901C56.197 63.5745 58.1768 62.3502 60.767 62.0059C64.0916 61.5648 65.5584 59.1522 66.0692 57.165H66.0896C65.9088 56.6204 65.7279 56.0758 65.5064 55.5514L64.6702 55.5536C64.6702 55.5536 64.6114 59.8634 60.5545 60.4035C56.4976 60.9436 53.7899 63.3675 50.2732 65.2534C46.7564 67.1393 44.32 72.5271 44.32 72.5271C38.0978 75.221 31.8734 81.4189 31.0621 90.0385C30.3592 97.5057 35.745 99.3129 41.2439 99.3129C42.0938 99.3129 42.9458 99.2701 43.7776 99.1981C49.9997 98.6602 64.3402 95.9641 64.3402 95.9641C64.3402 92.4623 66.7744 86.5344 66.7744 86.5344C65.5336 85.7624 63.4904 83.1293 61.9739 81.0228C60.4777 78.1332 59.7454 75.1962 57.5734 74.4108C57.5734 74.4108 58.6266 76.1167 59.4493 78.2479C58.995 78.2929 58.5588 78.3132 58.1452 78.3132C53.4893 78.3132 51.3513 75.7589 51.3513 75.7589C52.974 73.6029 58.387 68.2151 60.55 67.6772C61.271 67.4972 62.053 67.4387 62.7853 67.4387C64.2476 67.4387 65.511 67.6772 65.6918 67.6772C65.963 67.6772 72.7276 71.179 72.7276 71.179C72.7276 71.179 74.3503 76.0289 75.7042 85.4586C77.058 94.8883 72.7276 98.6602 72.7276 98.6602C72.7276 98.6602 84.5797 102 90.7996 102C91.4211 102 91.9884 101.966 92.4788 101.892C97.8896 101.084 110.472 91.5193 111.823 89.9034C113.177 88.2875 116.965 79.6658 117.776 77.2397C118.588 74.8136 116.97 66.7297 116.429 65.1116Z" fill="url(#paint5_linear_0_477)"/>
<path id="Path_72" d="M63.4707 60L65 66H63.2158L62 60.4378L63.4707 60Z" fill="#3B3B3B"/>
<g id="Group_9">
<path id="Path_73" d="M76.6299 60.1955C76.6299 60.1955 76.314 59.8614 75.4799 59.3114C74.6458 58.7614 73.3094 57.8841 72.1503 57.6182C70.9912 57.3523 70.0935 57.1864 69.7821 57.1159C69.4708 57.0455 68.989 56.8727 68.8549 56.9818C68.7208 57.0909 68.5935 58.0091 68.5617 58.2091C68.5276 58.4091 68.198 59.575 68.1185 60.4841C68.039 61.3909 68.1526 62.3864 68.2571 62.8727C68.3617 63.3591 68.4799 64.0545 68.5594 64.4045C68.6412 64.7568 68.5844 65.1023 68.673 65.1182C68.764 65.1341 69.3435 64.9841 69.939 65.0068C70.5367 65.0295 72.248 64.7477 72.739 64.5659C73.2321 64.3841 74.7753 63.5682 75.514 63.1636C76.2503 62.7591 76.4617 62.175 76.598 62.0455C76.7344 61.9182 77.1412 61.8341 77.1412 61.8341L76.6299 60.1955Z" fill="url(#paint6_linear_0_477)"/>
<path id="Path_74" d="M77.1662 60.175C77.1662 60.175 76.4116 59.1705 75.5866 58.5636C74.7616 57.9568 73.4412 56.9886 72.2843 56.7136C71.1275 56.4386 70.2298 56.2682 69.9184 56.1955C69.6071 56.1227 69.1275 55.9364 68.9912 56.0636C68.8548 56.1909 68.7071 57.2386 68.6684 57.4682C68.6298 57.6977 68.273 59.0341 68.1707 60.0682C68.0707 61.1023 67.9775 61.1659 68.0139 61.7273C68.0525 62.3341 67.9957 62.4682 68.0707 62.8659C68.1434 63.2636 68.4707 64.0909 68.5593 64.1046C68.6503 64.1205 69.2434 63.4546 69.8434 63.4682C70.4434 63.4818 72.1662 63.1205 72.6662 62.9023C73.1639 62.6841 74.7343 61.7182 75.4821 61.2409C76.2321 60.7636 76.5116 61.8 76.6503 61.6523C76.7912 61.5046 77.2003 61.4 77.2003 61.4L77.1662 60.175Z" fill="url(#paint7_linear_0_477)"/>
<path id="Path_75" d="M79.3616 59.8136C79.3616 59.8136 79.7616 59.4864 80.5662 58.6705C81.3707 57.8546 83.2207 58.3909 83.9253 58.1818C84.6298 57.9727 85.9571 57.6364 86.5685 57.4364C87.1798 57.2364 87.298 57.0705 87.3957 57.3182C87.4935 57.5659 87.6685 58.8886 87.8389 59.6796C88.0094 60.4705 87.7844 60.1796 87.7571 61.1932C87.7298 62.2068 87.8162 62.5205 87.7412 62.6932C87.6662 62.8659 87.4094 64.0023 87.3321 64.7523C87.2548 65.5023 87.1776 65.8364 86.8548 65.8296C86.5321 65.8227 84.4116 65.2205 83.8366 65.0568C83.2616 64.8932 81.7594 64.0455 81.0844 63.6568C80.4094 63.2682 79.8344 62.8273 79.6798 62.6409C79.5253 62.4546 79.3594 62.1955 79.3594 62.1955L79.3616 59.8136Z" fill="url(#paint8_linear_0_477)"/>
<path id="Path_76" d="M79.4111 59.5136C79.4111 59.5136 79.8043 59.2727 80.5839 58.6614C81.3657 58.05 82.9316 57.5159 83.6361 57.3795C84.3384 57.2432 85.6657 57.0295 86.2748 56.8955C86.8839 56.7614 86.9975 56.6364 87.1066 56.8341C87.2157 57.0318 87.443 58.0795 87.6452 58.7068C87.8475 59.3341 87.9293 60.1227 87.9384 60.9182C87.9498 61.7136 87.8657 62.1295 87.7975 62.2614C87.7634 62.3295 86.068 62.6045 84.0202 62.5182C82.0589 62.4341 79.9225 61.825 79.8407 61.75C79.677 61.5977 79.502 61.3886 79.502 61.3886L79.4111 59.5136Z" fill="url(#paint9_linear_0_477)"/>
<path id="Path_77" d="M77.0956 61.575C77.0956 61.575 76.6251 61.5841 75.9933 61.275C75.3615 60.9659 74.5388 60.6818 73.7819 60.7159C73.0251 60.7523 72.1819 61.3546 72.6024 61.8727C73.0206 62.3909 74.5365 62.0136 75.1683 61.8091C75.8001 61.6046 76.8433 61.6568 76.9751 61.6886C77.1092 61.7182 77.0956 61.575 77.0956 61.575Z" fill="url(#paint10_linear_0_477)"/>
<path id="Path_78" d="M78.4277 61.6364C78.4277 61.6364 79.4141 61.7182 80.0459 61.7068C81.1505 61.6864 81.7527 61.2795 82.1573 61.1159C82.5618 60.9523 84.7686 60.4205 84.2255 61.3659C83.68 62.3159 82.8891 62.0295 82.1096 61.975C81.33 61.9205 80.8346 61.9341 80.0164 61.9545C79.1982 61.975 78.4277 61.6364 78.4277 61.6364Z" fill="url(#paint11_linear_0_477)"/>
<path id="Path_79" d="M77.0067 59.5182C77.0067 59.5182 76.834 59.4432 76.7863 59.5977C76.7386 59.7523 76.8317 60.1614 76.8067 60.4568C76.7817 60.7523 76.7295 61.4841 76.8772 61.7159C77.0226 61.9477 77.259 61.7796 77.6454 61.8182C78.0317 61.8591 79.3681 61.8932 79.4431 61.9977C79.5181 62.1023 79.634 62.0977 79.6726 61.8727C79.709 61.6477 79.7136 59.7977 79.6067 59.7341C79.5022 59.6705 78.7476 59.7546 78.4249 59.7477C78.1022 59.7455 77.0067 59.5182 77.0067 59.5182Z" fill="url(#paint12_linear_0_477)"/>
<path id="Path_80" d="M76.8133 61.9614C76.7247 61.8886 76.8724 61.3227 76.886 61.0955C76.8997 60.8659 76.9406 60.4795 76.9429 60.1795C76.9451 59.8795 76.8179 59.6727 76.8588 59.5636C76.8997 59.4545 77.1588 59.4273 77.3838 59.4636C77.6088 59.5 78.3701 59.5091 78.4088 59.5636C78.4451 59.6159 78.5815 59.5 79.0156 59.525C79.4497 59.55 79.6156 59.5318 79.5974 59.7818C79.5792 60.0341 79.6042 60.5909 79.6088 60.9864C79.6133 61.3795 79.5997 61.8864 79.5247 61.9205C79.4497 61.9545 78.9179 61.9591 78.7701 62.0045C78.6247 62.05 78.2269 62.0773 77.886 62.0432C77.5429 62.0114 76.9542 62.0773 76.8133 61.9614Z" fill="url(#paint13_linear_0_477)"/>
<path id="Path_81" d="M78.3859 59.5614C78.3859 59.5614 78.3609 59.8568 78.3995 60.05C78.4382 60.2409 78.5018 60.6909 78.4904 60.8977C78.4791 61.1046 78.5109 61.6182 78.5268 61.8046C78.5427 61.9909 78.5723 62.0886 78.5723 62.0886C78.5723 62.0886 78.6041 61.5455 78.5859 61.125C78.5677 60.7068 78.5154 60.2818 78.47 60.1341C78.4245 59.9886 78.4609 59.6023 78.3859 59.5614Z" fill="url(#paint14_linear_0_477)"/>
</g>
<g id="Group_10">
<path id="Path_82" d="M52.9096 72.5738L51.3768 72.5106C51.3768 72.5106 48.4249 70.3247 47.9612 69.2504C48.1606 69.9994 48.8354 72.2462 49.9855 73.2128C49.9855 73.2128 46.971 72.2766 44.8841 73.2128C44.8841 73.2128 48.5942 73.4468 49.9855 74.8511C49.9855 74.8511 45.8116 73.4468 42.1014 75.7872C38.3913 78.1277 37 80 37 80C37 80 45.1252 73.1753 52.193 76.3536L50.6812 75.0851L52.9096 72.5738Z" fill="url(#paint15_linear_0_477)"/>
<path id="Path_83" d="M47.9607 69.2504C47.919 69.0936 47.8981 69 47.8981 69C47.8981 69.0726 47.9213 69.1568 47.9607 69.2504Z" fill="url(#paint16_linear_0_477)"/>
</g>
</g>
<defs>
<linearGradient id="paint0_linear_0_477" x1="69.0005" y1="42.9993" x2="81.9998" y2="42.9993" gradientUnits="userSpaceOnUse">
<stop stop-color="#454545"/>
<stop offset="0.5449" stop-color="#3D3D3D"/>
<stop offset="1" stop-color="#212121"/>
</linearGradient>
<linearGradient id="paint1_linear_0_477" x1="73.9995" y1="81.0004" x2="109.999" y2="81.0004" gradientUnits="userSpaceOnUse">
<stop stop-color="#141414"/>
<stop offset="0.2926" stop-color="#1E1E1E"/>
<stop offset="0.7936" stop-color="#3A3A3A"/>
<stop offset="1" stop-color="#474747"/>
</linearGradient>
<linearGradient id="paint2_linear_0_477" x1="37.9999" y1="82.9997" x2="55.9993" y2="82.9997" gradientUnits="userSpaceOnUse">
<stop stop-color="#474747"/>
<stop offset="0.2064" stop-color="#3A3A3A"/>
<stop offset="0.7074" stop-color="#1E1E1E"/>
<stop offset="1" stop-color="#141414"/>
</linearGradient>
<linearGradient id="paint3_linear_0_477" x1="75.0009" y1="101" x2="117.004" y2="101" gradientUnits="userSpaceOnUse">
<stop stop-color="#141414"/>
<stop offset="1" stop-color="#474747"/>
</linearGradient>
<linearGradient id="paint4_linear_0_477" x1="100.642" y1="72.6071" x2="113.014" y2="58.7741" gradientUnits="userSpaceOnUse">
<stop stop-color="#474747"/>
<stop offset="0.2064" stop-color="#3A3A3A"/>
<stop offset="0.7074" stop-color="#1E1E1E"/>
<stop offset="1" stop-color="#141414"/>
</linearGradient>
<linearGradient id="paint5_linear_0_477" x1="31.0031" y1="101.998" x2="118.005" y2="101.998" gradientUnits="userSpaceOnUse">
<stop stop-color="#141414"/>
<stop offset="1" stop-color="#474747"/>
</linearGradient>
<linearGradient id="paint6_linear_0_477" x1="65.7773" y1="58.6896" x2="68.8744" y2="66.1916" gradientUnits="userSpaceOnUse">
<stop stop-color="#363636"/>
<stop offset="0.3258" stop-color="#474747"/>
<stop offset="0.3353" stop-color="#454545"/>
<stop offset="0.4637" stop-color="#2F2F2F"/>
<stop offset="0.6045" stop-color="#202020"/>
<stop offset="0.7672" stop-color="#171717"/>
<stop offset="1" stop-color="#141414"/>
</linearGradient>
<linearGradient id="paint7_linear_0_477" x1="65.7328" y1="57.7586" x2="68.6568" y2="65.2304" gradientUnits="userSpaceOnUse">
<stop stop-color="#454545"/>
<stop offset="0.5449" stop-color="#3D3D3D"/>
<stop offset="1" stop-color="#212121"/>
</linearGradient>
<linearGradient id="paint8_linear_0_477" x1="79.0854" y1="58.8873" x2="80.8574" y2="66.8043" gradientUnits="userSpaceOnUse">
<stop stop-color="#363636"/>
<stop offset="0.1404" stop-color="#474747"/>
<stop offset="0.1525" stop-color="#454545"/>
<stop offset="0.3162" stop-color="#2F2F2F"/>
<stop offset="0.4957" stop-color="#202020"/>
<stop offset="0.7032" stop-color="#171717"/>
<stop offset="1" stop-color="#141414"/>
</linearGradient>
<linearGradient id="paint9_linear_0_477" x1="79.1897" y1="57.9611" x2="79.7282" y2="63.27" gradientUnits="userSpaceOnUse">
<stop stop-color="#454545"/>
<stop offset="0.5449" stop-color="#3D3D3D"/>
<stop offset="1" stop-color="#212121"/>
</linearGradient>
<linearGradient id="paint10_linear_0_477" x1="71.9059" y1="60.3188" x2="71.9713" y2="61.6971" gradientUnits="userSpaceOnUse">
<stop stop-color="#242424"/>
<stop offset="1"/>
</linearGradient>
<linearGradient id="paint11_linear_0_477" x1="78.2216" y1="60.0346" x2="78.1061" y2="62.1412" gradientUnits="userSpaceOnUse">
<stop stop-color="#242424"/>
<stop offset="1"/>
</linearGradient>
<linearGradient id="paint12_linear_0_477" x1="76.3372" y1="61.8942" x2="79.4817" y2="62.5659" gradientUnits="userSpaceOnUse">
<stop/>
<stop offset="0.2614" stop-color="#191919"/>
<stop offset="0.5903" stop-color="#333333"/>
<stop offset="0.7865" stop-color="#3D3D3D"/>
<stop offset="1"/>
</linearGradient>
<linearGradient id="paint13_linear_0_477" x1="79.7918" y1="61.8198" x2="79.6059" y2="59.0247" gradientUnits="userSpaceOnUse">
<stop/>
<stop offset="0.2614" stop-color="#191919"/>
<stop offset="0.5903" stop-color="#333333"/>
<stop offset="0.7865" stop-color="#3D3D3D"/>
<stop offset="1"/>
</linearGradient>
<linearGradient id="paint14_linear_0_477" x1="78.1829" y1="64.0263" x2="78.7683" y2="64.0271" gradientUnits="userSpaceOnUse">
<stop/>
<stop offset="0.2614" stop-color="#191919"/>
<stop offset="0.5903" stop-color="#333333"/>
<stop offset="0.7865" stop-color="#3D3D3D"/>
<stop offset="1"/>
</linearGradient>
<linearGradient id="paint15_linear_0_477" x1="36.616" y1="79.9994" x2="52.5252" y2="79.9994" gradientUnits="userSpaceOnUse">
<stop offset="0.6314" stop-color="#474747"/>
<stop offset="1" stop-color="#141414"/>
</linearGradient>
<linearGradient id="paint16_linear_0_477" x1="36.6156" y1="77.7154" x2="52.5248" y2="77.7154" gradientUnits="userSpaceOnUse">
<stop offset="0.6314" stop-color="#474747"/>
<stop offset="1" stop-color="#141414"/>
</linearGradient>
</defs>
</svg>
